<svg width="170" height="190" viewBox="0 0 170 190" fill="none" xmlns="http://www.w3.org/2000/svg">
<path d="M170 50.0977L124.231 38.9648L111.154 0H13.0769C5.85454 0 0 4.98416 0 11.1328V178.867C0 185.016 5.85454 190 13.0769 190H156.923C164.145 190 170 185.016 170 178.867V50.0977Z" fill="#59C36A"/>
<path d="M169.999 50.0977V178.867C169.999 185.016 164.145 190 156.922 190H86.0459V0H111.153L124.23 38.9648L169.999 50.0977Z" fill="#00A66C"/>
<path d="M124.231 78.3007H45.7694C42.1554 78.3007 39.231 80.7903 39.231 83.8671V150.664C39.231 153.741 42.1554 156.23 45.7694 156.23H124.231C127.845 156.23 130.769 153.741 130.769 150.664V83.8671C130.769 80.7903 127.845 78.3007 124.231 78.3007ZM52.3079 111.699H78.4617V122.832H52.3079V111.699ZM91.5387 111.699H117.692V122.832H91.5387V111.699ZM117.692 100.566H91.5387V89.4335H117.692V100.566ZM78.4617 89.4335V100.566H52.3079V89.4335H78.4617ZM52.3079 133.965H78.4617V145.098H52.3079V133.965ZM91.5387 145.098V133.965H117.692V145.098H91.5387Z" fill="#FFF5F5"/>
<path d="M124.23 78.3007H86.0591V156.23H124.23C127.844 156.23 130.768 153.741 130.768 150.664V83.8671C130.768 80.7903 127.844 78.3007 124.23 78.3007ZM117.691 145.098H91.5374V133.965H117.691V145.098ZM117.691 122.832H91.5374V111.699H117.691V122.832ZM117.691 100.566H91.5374V89.4335H117.691V100.566Z" fill="#E3E7EA"/>
<path d="M170 50.0977H124.231C117.039 50.0977 111.154 45.0879 111.154 38.9648V0C112.854 0 114.554 0.556641 115.731 1.67029L168.038 46.2015C169.346 47.2031 170 48.6504 170 50.0977Z" fill="#A0DEB0"/>
</svg>
