<svg width="144" height="46" viewBox="0 0 144 46" fill="none" xmlns="http://www.w3.org/2000/svg">
<path d="M5.57031 43.3098V37.2687H6.69531V43.3098C6.69531 43.8723 6.58008 44.3469 6.34961 44.7336C6.11914 45.1203 5.80078 45.4152 5.39453 45.6183C4.99219 45.8176 4.5293 45.9172 4.00586 45.9172C3.48242 45.9172 3.01758 45.8273 2.61133 45.6476C2.20508 45.468 1.88672 45.1945 1.65625 44.8273C1.42578 44.4601 1.31055 43.9973 1.31055 43.4387H2.44141C2.44141 43.798 2.50781 44.093 2.64062 44.3234C2.77344 44.5539 2.95703 44.7238 3.19141 44.8332C3.42969 44.9426 3.70117 44.9973 4.00586 44.9973C4.30273 44.9973 4.56836 44.9348 4.80273 44.8098C5.04102 44.6808 5.22852 44.4914 5.36523 44.2414C5.50195 43.9875 5.57031 43.6769 5.57031 43.3098Z" fill="white" fill-opacity="0.7"/>
<path d="M12.7262 44.3351V39.4601H13.816V45.8H12.7789L12.7262 44.3351ZM12.9312 42.9992L13.3824 42.9875C13.3824 43.4094 13.3375 43.8 13.2477 44.1594C13.1617 44.5148 13.0211 44.8234 12.8258 45.0851C12.6305 45.3469 12.3746 45.5519 12.0582 45.7004C11.7418 45.8449 11.357 45.9172 10.9039 45.9172C10.5953 45.9172 10.3121 45.8723 10.0543 45.7824C9.80039 45.6926 9.58164 45.5539 9.39805 45.3664C9.21445 45.1789 9.07188 44.9348 8.97031 44.634C8.87266 44.3332 8.82383 43.9719 8.82383 43.55V39.4601H9.90781V43.5617C9.90781 43.8469 9.93906 44.0832 10.0016 44.2707C10.068 44.4543 10.1559 44.6008 10.2652 44.7101C10.3785 44.8156 10.5035 44.8898 10.6402 44.9328C10.7809 44.9758 10.9254 44.9973 11.0738 44.9973C11.5348 44.9973 11.9 44.9094 12.1695 44.7336C12.4391 44.5539 12.6324 44.3137 12.7496 44.0129C12.8707 43.7082 12.9312 43.3703 12.9312 42.9992Z" fill="white" fill-opacity="0.7"/>
<path d="M19.5598 44.1183C19.5598 43.9621 19.5246 43.8176 19.4543 43.6848C19.3879 43.548 19.2492 43.425 19.0383 43.3156C18.8312 43.2023 18.5187 43.1047 18.1008 43.0226C17.7492 42.9484 17.4309 42.8605 17.1457 42.759C16.8645 42.6574 16.6242 42.5344 16.425 42.3898C16.2297 42.2453 16.0793 42.0754 15.9738 41.8801C15.8684 41.6848 15.8156 41.4562 15.8156 41.1945C15.8156 40.9445 15.8703 40.7082 15.9797 40.4855C16.093 40.2629 16.2512 40.0656 16.4543 39.8937C16.6613 39.7219 16.9094 39.5871 17.1984 39.4894C17.4875 39.3918 17.8098 39.343 18.1652 39.343C18.673 39.343 19.1066 39.4328 19.466 39.6125C19.8254 39.7922 20.1008 40.0324 20.2922 40.3332C20.4836 40.6301 20.5793 40.9601 20.5793 41.3234H19.4953C19.4953 41.1476 19.4426 40.9777 19.3371 40.8137C19.2355 40.6457 19.0852 40.507 18.8859 40.3976C18.6906 40.2883 18.4504 40.2336 18.1652 40.2336C17.8645 40.2336 17.6203 40.2805 17.4328 40.3742C17.2492 40.4641 17.1145 40.5793 17.0285 40.7199C16.9465 40.8605 16.9055 41.009 16.9055 41.1652C16.9055 41.2824 16.925 41.3879 16.9641 41.4816C17.007 41.5715 17.0813 41.6555 17.1867 41.7336C17.2922 41.8078 17.4406 41.8781 17.632 41.9445C17.8234 42.0109 18.0676 42.0773 18.3645 42.1437C18.884 42.2609 19.3117 42.4016 19.6477 42.5656C19.9836 42.7297 20.2336 42.9308 20.3977 43.1691C20.5617 43.4074 20.6437 43.6965 20.6437 44.0363C20.6437 44.3137 20.5852 44.5676 20.468 44.798C20.3547 45.0285 20.1887 45.2277 19.9699 45.3957C19.7551 45.5598 19.4973 45.6887 19.1965 45.7824C18.8996 45.8723 18.5656 45.9172 18.1945 45.9172C17.6359 45.9172 17.1633 45.8176 16.7766 45.6183C16.3898 45.4191 16.0969 45.1613 15.8977 44.8449C15.6984 44.5285 15.5988 44.1945 15.5988 43.843H16.6887C16.7043 44.1398 16.7902 44.3762 16.9465 44.5519C17.1027 44.7238 17.2941 44.8469 17.5207 44.9211C17.7473 44.9914 17.9719 45.0266 18.1945 45.0266C18.4914 45.0266 18.7395 44.9875 18.9387 44.9094C19.1418 44.8312 19.2961 44.7238 19.4016 44.5871C19.507 44.4504 19.5598 44.2941 19.5598 44.1183Z" fill="white" fill-opacity="0.7"/>
<path d="M25.1219 39.4601V40.2922H21.6941V39.4601H25.1219ZM22.8543 37.9191H23.9383V44.2297C23.9383 44.4445 23.9715 44.6066 24.0379 44.716C24.1043 44.8254 24.1902 44.8976 24.2957 44.9328C24.4012 44.968 24.5145 44.9855 24.6355 44.9855C24.7254 44.9855 24.8191 44.9777 24.9168 44.9621C25.0184 44.9426 25.0945 44.9269 25.1453 44.9152L25.1512 45.8C25.0652 45.8273 24.952 45.8527 24.8113 45.8762C24.6746 45.9035 24.5086 45.9172 24.3133 45.9172C24.0477 45.9172 23.8035 45.8644 23.5809 45.759C23.3582 45.6535 23.1805 45.4777 23.0477 45.2316C22.9188 44.9816 22.8543 44.6457 22.8543 44.2238V37.9191Z" fill="white" fill-opacity="0.7"/>
<path d="M34.166 44.5695V36.8H35.2559V45.8H34.2598L34.166 44.5695ZM29.9004 42.7004V42.5773C29.9004 42.093 29.959 41.6535 30.0762 41.259C30.1973 40.8605 30.3672 40.5187 30.5859 40.2336C30.8086 39.9484 31.0723 39.7297 31.377 39.5773C31.6855 39.4211 32.0293 39.343 32.4082 39.343C32.8066 39.343 33.1543 39.4133 33.4512 39.5539C33.752 39.6906 34.0059 39.8918 34.2129 40.1574C34.4238 40.4191 34.5898 40.7355 34.7109 41.1066C34.832 41.4777 34.916 41.8976 34.9629 42.3664V42.9055C34.9199 43.3703 34.8359 43.7883 34.7109 44.1594C34.5898 44.5305 34.4238 44.8469 34.2129 45.1086C34.0059 45.3703 33.752 45.5715 33.4512 45.7121C33.1504 45.8488 32.7988 45.9172 32.3965 45.9172C32.0254 45.9172 31.6855 45.8371 31.377 45.6769C31.0723 45.5168 30.8086 45.2922 30.5859 45.0031C30.3672 44.7141 30.1973 44.3742 30.0762 43.9836C29.959 43.5891 29.9004 43.1613 29.9004 42.7004ZM30.9902 42.5773V42.7004C30.9902 43.0168 31.0215 43.3137 31.084 43.591C31.1504 43.8683 31.252 44.1125 31.3887 44.3234C31.5254 44.5344 31.6992 44.7004 31.9102 44.8215C32.1211 44.9387 32.373 44.9973 32.666 44.9973C33.0254 44.9973 33.3203 44.9211 33.5508 44.7687C33.7852 44.6164 33.9727 44.4152 34.1133 44.1652C34.2539 43.9152 34.3633 43.6437 34.4414 43.3508V41.9387C34.3945 41.7238 34.3262 41.5168 34.2363 41.3176C34.1504 41.1144 34.0371 40.9348 33.8965 40.7785C33.7598 40.6183 33.5898 40.4914 33.3867 40.3976C33.1875 40.3039 32.9512 40.257 32.6777 40.257C32.3809 40.257 32.125 40.3195 31.9102 40.4445C31.6992 40.5656 31.5254 40.7336 31.3887 40.9484C31.252 41.1594 31.1504 41.4055 31.084 41.6867C31.0215 41.9641 30.9902 42.2609 30.9902 42.5773Z" fill="white" fill-opacity="0.7"/>
<path d="M37.0563 42.7004V42.5656C37.0563 42.1086 37.1227 41.6848 37.2555 41.2941C37.3883 40.8996 37.5797 40.5578 37.8297 40.2687C38.0797 39.9758 38.3824 39.7492 38.7379 39.5891C39.0934 39.425 39.4918 39.343 39.9332 39.343C40.3785 39.343 40.7789 39.425 41.1344 39.5891C41.4938 39.7492 41.7984 39.9758 42.0484 40.2687C42.3023 40.5578 42.4957 40.8996 42.6285 41.2941C42.7613 41.6848 42.8277 42.1086 42.8277 42.5656V42.7004C42.8277 43.1574 42.7613 43.5812 42.6285 43.9719C42.4957 44.3625 42.3023 44.7043 42.0484 44.9973C41.7984 45.2863 41.4957 45.5129 41.1402 45.6769C40.7887 45.8371 40.3902 45.9172 39.9449 45.9172C39.4996 45.9172 39.0992 45.8371 38.7438 45.6769C38.3883 45.5129 38.0836 45.2863 37.8297 44.9973C37.5797 44.7043 37.3883 44.3625 37.2555 43.9719C37.1227 43.5812 37.0563 43.1574 37.0563 42.7004ZM38.1402 42.5656V42.7004C38.1402 43.0168 38.1773 43.3156 38.2516 43.5969C38.3258 43.8742 38.4371 44.1203 38.5855 44.3351C38.7379 44.55 38.9273 44.7199 39.1539 44.8449C39.3805 44.966 39.6441 45.0266 39.9449 45.0266C40.2418 45.0266 40.5016 44.966 40.7242 44.8449C40.9508 44.7199 41.1383 44.55 41.2867 44.3351C41.4352 44.1203 41.5465 43.8742 41.6207 43.5969C41.6988 43.3156 41.7379 43.0168 41.7379 42.7004V42.5656C41.7379 42.2531 41.6988 41.9582 41.6207 41.6808C41.5465 41.3996 41.4332 41.1516 41.2809 40.9367C41.1324 40.718 40.9449 40.5461 40.7184 40.4211C40.4957 40.2961 40.234 40.2336 39.9332 40.2336C39.6363 40.2336 39.3746 40.2961 39.148 40.4211C38.9254 40.5461 38.7379 40.718 38.5855 40.9367C38.4371 41.1516 38.3258 41.3996 38.2516 41.6808C38.1773 41.9582 38.1402 42.2531 38.1402 42.5656Z" fill="white" fill-opacity="0.7"/>
<path d="M49.1414 39.4601V45.8H48.0516V39.4601H49.1414ZM47.9695 37.7785C47.9695 37.6027 48.0223 37.4543 48.1277 37.3332C48.2371 37.2121 48.3973 37.1516 48.6082 37.1516C48.8152 37.1516 48.9734 37.2121 49.0828 37.3332C49.1961 37.4543 49.2527 37.6027 49.2527 37.7785C49.2527 37.9465 49.1961 38.091 49.0828 38.2121C48.9734 38.3293 48.8152 38.3879 48.6082 38.3879C48.3973 38.3879 48.2371 38.3293 48.1277 38.2121C48.0223 38.091 47.9695 37.9465 47.9695 37.7785Z" fill="white" fill-opacity="0.7"/>
<path d="M53.9359 39.4601V40.2922H50.5082V39.4601H53.9359ZM51.6684 37.9191H52.7523V44.2297C52.7523 44.4445 52.7855 44.6066 52.852 44.716C52.9184 44.8254 53.0043 44.8976 53.1098 44.9328C53.2152 44.968 53.3285 44.9855 53.4496 44.9855C53.5395 44.9855 53.6332 44.9777 53.7309 44.9621C53.8324 44.9426 53.9086 44.9269 53.9594 44.9152L53.9652 45.8C53.8793 45.8273 53.766 45.8527 53.6254 45.8762C53.4887 45.9035 53.3227 45.9172 53.1273 45.9172C52.8617 45.9172 52.6176 45.8644 52.3949 45.759C52.1723 45.6535 51.9945 45.4777 51.8617 45.2316C51.7328 44.9816 51.6684 44.6457 51.6684 44.2238V37.9191Z" fill="white" fill-opacity="0.7"/>
<path d="M4.40625 4.9375V22H2.14453V4.9375H4.40625ZM10.3594 12.0273V22H8.19141V9.32031H10.2422L10.3594 12.0273ZM9.84375 15.1797L8.94141 15.1445C8.94922 14.2773 9.07812 13.4766 9.32812 12.7422C9.57812 12 9.92969 11.3555 10.3828 10.8086C10.8359 10.2617 11.375 9.83984 12 9.54297C12.6328 9.23828 13.332 9.08594 14.0977 9.08594C14.7227 9.08594 15.2852 9.17188 15.7852 9.34375C16.2852 9.50781 16.7109 9.77344 17.0625 10.1406C17.4219 10.5078 17.6953 10.9844 17.8828 11.5703C18.0703 12.1484 18.1641 12.8555 18.1641 13.6914V22H15.9844V13.668C15.9844 13.0039 15.8867 12.4727 15.6914 12.0742C15.4961 11.668 15.2109 11.375 14.8359 11.1953C14.4609 11.0078 14 10.9141 13.4531 10.9141C12.9141 10.9141 12.4219 11.0273 11.9766 11.2539C11.5391 11.4805 11.1602 11.793 10.8398 12.1914C10.5273 12.5898 10.2812 13.0469 10.1016 13.5625C9.92969 14.0703 9.84375 14.6094 9.84375 15.1797ZM26.7656 9.32031V10.9844H19.9102V9.32031H26.7656ZM22.2305 6.23828H24.3984V18.8594C24.3984 19.2891 24.4648 19.6133 24.5977 19.832C24.7305 20.0508 24.9023 20.1953 25.1133 20.2656C25.3242 20.3359 25.5508 20.3711 25.793 20.3711C25.9727 20.3711 26.1602 20.3555 26.3555 20.3242C26.5586 20.2852 26.7109 20.2539 26.8125 20.2305L26.8242 22C26.6523 22.0547 26.4258 22.1055 26.1445 22.1523C25.8711 22.207 25.5391 22.2344 25.1484 22.2344C24.6172 22.2344 24.1289 22.1289 23.6836 21.918C23.2383 21.707 22.8828 21.3555 22.6172 20.8633C22.3594 20.3633 22.2305 19.6914 22.2305 18.8477V6.23828ZM34.5703 22.2344C33.6875 22.2344 32.8867 22.0859 32.168 21.7891C31.457 21.4844 30.8438 21.0586 30.3281 20.5117C29.8203 19.9648 29.4297 19.3164 29.1562 18.5664C28.8828 17.8164 28.7461 16.9961 28.7461 16.1055V15.6133C28.7461 14.582 28.8984 13.6641 29.2031 12.8594C29.5078 12.0469 29.9219 11.3594 30.4453 10.7969C30.9688 10.2344 31.5625 9.80859 32.2266 9.51953C32.8906 9.23047 33.5781 9.08594 34.2891 9.08594C35.1953 9.08594 35.9766 9.24219 36.6328 9.55469C37.2969 9.86719 37.8398 10.3047 38.2617 10.8672C38.6836 11.4219 38.9961 12.0781 39.1992 12.8359C39.4023 13.5859 39.5039 14.4062 39.5039 15.2969V16.2695H30.0352V14.5H37.3359V14.3359C37.3047 13.7734 37.1875 13.2266 36.9844 12.6953C36.7891 12.1641 36.4766 11.7266 36.0469 11.3828C35.6172 11.0391 35.0312 10.8672 34.2891 10.8672C33.7969 10.8672 33.3438 10.9727 32.9297 11.1836C32.5156 11.3867 32.1602 11.6914 31.8633 12.0977C31.5664 12.5039 31.3359 13 31.1719 13.5859C31.0078 14.1719 30.9258 14.8477 30.9258 15.6133V16.1055C30.9258 16.707 31.0078 17.2734 31.1719 17.8047C31.3438 18.3281 31.5898 18.7891 31.9102 19.1875C32.2383 19.5859 32.6328 19.8984 33.0938 20.125C33.5625 20.3516 34.0938 20.4648 34.6875 20.4648C35.4531 20.4648 36.1016 20.3086 36.6328 19.9961C37.1641 19.6836 37.6289 19.2656 38.0273 18.7422L39.3398 19.7852C39.0664 20.1992 38.7188 20.5938 38.2969 20.9688C37.875 21.3438 37.3555 21.6484 36.7383 21.8828C36.1289 22.1172 35.4062 22.2344 34.5703 22.2344ZM50.25 9.32031H52.2188V21.7305C52.2188 22.8477 51.9922 23.8008 51.5391 24.5898C51.0859 25.3789 50.4531 25.9766 49.6406 26.3828C48.8359 26.7969 47.9062 27.0039 46.8516 27.0039C46.4141 27.0039 45.8984 26.9336 45.3047 26.793C44.7188 26.6602 44.1406 26.4297 43.5703 26.1016C43.0078 25.7812 42.5352 25.3477 42.1523 24.8008L43.2891 23.5117C43.8203 24.1523 44.375 24.5977 44.9531 24.8477C45.5391 25.0977 46.1172 25.2227 46.6875 25.2227C47.375 25.2227 47.9688 25.0938 48.4688 24.8359C48.9688 24.5781 49.3555 24.1953 49.6289 23.6875C49.9102 23.1875 50.0508 22.5703 50.0508 21.8359V12.1094L50.25 9.32031ZM41.5195 15.8008V15.5547C41.5195 14.5859 41.6328 13.707 41.8594 12.918C42.0938 12.1211 42.4258 11.4375 42.8555 10.8672C43.293 10.2969 43.8203 9.85938 44.4375 9.55469C45.0547 9.24219 45.75 9.08594 46.5234 9.08594C47.3203 9.08594 48.0156 9.22656 48.6094 9.50781C49.2109 9.78125 49.7188 10.1836 50.1328 10.7148C50.5547 11.2383 50.8867 11.8711 51.1289 12.6133C51.3711 13.3555 51.5391 14.1953 51.6328 15.1328V16.2109C51.5469 17.1406 51.3789 17.9766 51.1289 18.7188C50.8867 19.4609 50.5547 20.0938 50.1328 20.6172C49.7188 21.1406 49.2109 21.543 48.6094 21.8242C48.0078 22.0977 47.3047 22.2344 46.5 22.2344C45.7422 22.2344 45.0547 22.0742 44.4375 21.7539C43.8281 21.4336 43.3047 20.9844 42.8672 20.4062C42.4297 19.8281 42.0938 19.1484 41.8594 18.3672C41.6328 17.5781 41.5195 16.7227 41.5195 15.8008ZM43.6875 15.5547V15.8008C43.6875 16.4336 43.75 17.0273 43.875 17.582C44.0078 18.1367 44.207 18.625 44.4727 19.0469C44.7461 19.4688 45.0938 19.8008 45.5156 20.043C45.9375 20.2773 46.4414 20.3945 47.0273 20.3945C47.7461 20.3945 48.3398 20.2422 48.8086 19.9375C49.2773 19.6328 49.6484 19.2305 49.9219 18.7305C50.2031 18.2305 50.4219 17.6875 50.5781 17.1016V14.2773C50.4922 13.8477 50.3594 13.4336 50.1797 13.0352C50.0078 12.6289 49.7812 12.2695 49.5 11.957C49.2266 11.6367 48.8867 11.3828 48.4805 11.1953C48.0742 11.0078 47.5977 10.9141 47.0508 10.9141C46.457 10.9141 45.9453 11.0391 45.5156 11.2891C45.0938 11.5312 44.7461 11.8672 44.4727 12.2969C44.207 12.7188 44.0078 13.2109 43.875 13.7734C43.75 14.3281 43.6875 14.9219 43.6875 15.5547ZM57.6797 11.3125V22H55.5117V9.32031H57.6211L57.6797 11.3125ZM61.6406 9.25L61.6289 11.2656C61.4492 11.2266 61.2773 11.2031 61.1133 11.1953C60.957 11.1797 60.7773 11.1719 60.5742 11.1719C60.0742 11.1719 59.6328 11.25 59.25 11.4062C58.8672 11.5625 58.543 11.7812 58.2773 12.0625C58.0117 12.3438 57.8008 12.6797 57.6445 13.0703C57.4961 13.4531 57.3984 13.875 57.3516 14.3359L56.7422 14.6875C56.7422 13.9219 56.8164 13.2031 56.9648 12.5312C57.1211 11.8594 57.3594 11.2656 57.6797 10.75C58 10.2266 58.4062 9.82031 58.8984 9.53125C59.3984 9.23438 59.9922 9.08594 60.6797 9.08594C60.8359 9.08594 61.0156 9.10547 61.2188 9.14453C61.4219 9.17578 61.5625 9.21094 61.6406 9.25ZM70.6523 19.832V13.3047C70.6523 12.8047 70.5508 12.3711 70.3477 12.0039C70.1523 11.6289 69.8555 11.3398 69.457 11.1367C69.0586 10.9336 68.5664 10.832 67.9805 10.832C67.4336 10.832 66.9531 10.9258 66.5391 11.1133C66.1328 11.3008 65.8125 11.5469 65.5781 11.8516C65.3516 12.1562 65.2383 12.4844 65.2383 12.8359H63.0703C63.0703 12.3828 63.1875 11.9336 63.4219 11.4883C63.6562 11.043 63.9922 10.6406 64.4297 10.2812C64.875 9.91406 65.4062 9.625 66.0234 9.41406C66.6484 9.19531 67.3438 9.08594 68.1094 9.08594C69.0312 9.08594 69.8438 9.24219 70.5469 9.55469C71.2578 9.86719 71.8125 10.3398 72.2109 10.9727C72.6172 11.5977 72.8203 12.3828 72.8203 13.3281V19.2344C72.8203 19.6562 72.8555 20.1055 72.9258 20.582C73.0039 21.0586 73.1172 21.4688 73.2656 21.8125V22H71.0039C70.8945 21.75 70.8086 21.418 70.7461 21.0039C70.6836 20.582 70.6523 20.1914 70.6523 19.832ZM71.0273 14.3125L71.0508 15.8359H68.8594C68.2422 15.8359 67.6914 15.8867 67.207 15.9883C66.7227 16.082 66.3164 16.2266 65.9883 16.4219C65.6602 16.6172 65.4102 16.8633 65.2383 17.1602C65.0664 17.4492 64.9805 17.7891 64.9805 18.1797C64.9805 18.5781 65.0703 18.9414 65.25 19.2695C65.4297 19.5977 65.6992 19.8594 66.0586 20.0547C66.4258 20.2422 66.875 20.3359 67.4062 20.3359C68.0703 20.3359 68.6562 20.1953 69.1641 19.9141C69.6719 19.6328 70.0742 19.2891 70.3711 18.8828C70.6758 18.4766 70.8398 18.082 70.8633 17.6992L71.7891 18.7422C71.7344 19.0703 71.5859 19.4336 71.3438 19.832C71.1016 20.2305 70.7773 20.6133 70.3711 20.9805C69.9727 21.3398 69.4961 21.6406 68.9414 21.8828C68.3945 22.1172 67.7773 22.2344 67.0898 22.2344C66.2305 22.2344 65.4766 22.0664 64.8281 21.7305C64.1875 21.3945 63.6875 20.9453 63.3281 20.3828C62.9766 19.8125 62.8008 19.1758 62.8008 18.4727C62.8008 17.793 62.9336 17.1953 63.1992 16.6797C63.4648 16.1562 63.8477 15.7227 64.3477 15.3789C64.8477 15.0273 65.4492 14.7617 66.1523 14.582C66.8555 14.4023 67.6406 14.3125 68.5078 14.3125H71.0273ZM81.5391 9.32031V10.9844H74.6836V9.32031H81.5391ZM77.0039 6.23828H79.1719V18.8594C79.1719 19.2891 79.2383 19.6133 79.3711 19.832C79.5039 20.0508 79.6758 20.1953 79.8867 20.2656C80.0977 20.3359 80.3242 20.3711 80.5664 20.3711C80.7461 20.3711 80.9336 20.3555 81.1289 20.3242C81.332 20.2852 81.4844 20.2539 81.5859 20.2305L81.5977 22C81.4258 22.0547 81.1992 22.1055 80.918 22.1523C80.6445 22.207 80.3125 22.2344 79.9219 22.2344C79.3906 22.2344 78.9023 22.1289 78.457 21.918C78.0117 21.707 77.6562 21.3555 77.3906 20.8633C77.1328 20.3633 77.0039 19.6914 77.0039 18.8477V6.23828ZM83.2734 15.8008V15.5312C83.2734 14.6172 83.4062 13.7695 83.6719 12.9883C83.9375 12.1992 84.3203 11.5156 84.8203 10.9375C85.3203 10.3516 85.9258 9.89844 86.6367 9.57812C87.3477 9.25 88.1445 9.08594 89.0273 9.08594C89.918 9.08594 90.7188 9.25 91.4297 9.57812C92.1484 9.89844 92.7578 10.3516 93.2578 10.9375C93.7656 11.5156 94.1523 12.1992 94.418 12.9883C94.6836 13.7695 94.8164 14.6172 94.8164 15.5312V15.8008C94.8164 16.7148 94.6836 17.5625 94.418 18.3438C94.1523 19.125 93.7656 19.8086 93.2578 20.3945C92.7578 20.9727 92.1523 21.4258 91.4414 21.7539C90.7383 22.0742 89.9414 22.2344 89.0508 22.2344C88.1602 22.2344 87.3594 22.0742 86.6484 21.7539C85.9375 21.4258 85.3281 20.9727 84.8203 20.3945C84.3203 19.8086 83.9375 19.125 83.6719 18.3438C83.4062 17.5625 83.2734 16.7148 83.2734 15.8008ZM85.4414 15.5312V15.8008C85.4414 16.4336 85.5156 17.0312 85.6641 17.5938C85.8125 18.1484 86.0352 18.6406 86.332 19.0703C86.6367 19.5 87.0156 19.8398 87.4688 20.0898C87.9219 20.332 88.4492 20.4531 89.0508 20.4531C89.6445 20.4531 90.1641 20.332 90.6094 20.0898C91.0625 19.8398 91.4375 19.5 91.7344 19.0703C92.0312 18.6406 92.2539 18.1484 92.4023 17.5938C92.5586 17.0312 92.6367 16.4336 92.6367 15.8008V15.5312C92.6367 14.9062 92.5586 14.3164 92.4023 13.7617C92.2539 13.1992 92.0273 12.7031 91.7227 12.2734C91.4258 11.8359 91.0508 11.4922 90.5977 11.2422C90.1523 10.9922 89.6289 10.8672 89.0273 10.8672C88.4336 10.8672 87.9102 10.9922 87.457 11.2422C87.0117 11.4922 86.6367 11.8359 86.332 12.2734C86.0352 12.7031 85.8125 13.1992 85.6641 13.7617C85.5156 14.3164 85.4414 14.9062 85.4414 15.5312ZM99.7031 11.3125V22H97.5352V9.32031H99.6445L99.7031 11.3125ZM103.664 9.25L103.652 11.2656C103.473 11.2266 103.301 11.2031 103.137 11.1953C102.98 11.1797 102.801 11.1719 102.598 11.1719C102.098 11.1719 101.656 11.25 101.273 11.4062C100.891 11.5625 100.566 11.7812 100.301 12.0625C100.035 12.3438 99.8242 12.6797 99.668 13.0703C99.5195 13.4531 99.4219 13.875 99.375 14.3359L98.7656 14.6875C98.7656 13.9219 98.8398 13.2031 98.9883 12.5312C99.1445 11.8594 99.3828 11.2656 99.7031 10.75C100.023 10.2266 100.43 9.82031 100.922 9.53125C101.422 9.23438 102.016 9.08594 102.703 9.08594C102.859 9.08594 103.039 9.10547 103.242 9.14453C103.445 9.17578 103.586 9.21094 103.664 9.25ZM118.512 4.84375V22H116.344V7.55078L111.973 9.14453V7.1875L118.172 4.84375H118.512ZM125.156 20.8516C125.156 20.4844 125.27 20.1758 125.496 19.9258C125.73 19.668 126.066 19.5391 126.504 19.5391C126.941 19.5391 127.273 19.668 127.5 19.9258C127.734 20.1758 127.852 20.4844 127.852 20.8516C127.852 21.2109 127.734 21.5156 127.5 21.7656C127.273 22.0156 126.941 22.1406 126.504 22.1406C126.066 22.1406 125.73 22.0156 125.496 21.7656C125.27 21.5156 125.156 21.2109 125.156 20.8516ZM141.926 12.1094V14.7109C141.926 16.1094 141.801 17.2891 141.551 18.25C141.301 19.2109 140.941 19.9844 140.473 20.5703C140.004 21.1562 139.438 21.582 138.773 21.8477C138.117 22.1055 137.375 22.2344 136.547 22.2344C135.891 22.2344 135.285 22.1523 134.73 21.9883C134.176 21.8242 133.676 21.5625 133.23 21.2031C132.793 20.8359 132.418 20.3594 132.105 19.7734C131.793 19.1875 131.555 18.4766 131.391 17.6406C131.227 16.8047 131.145 15.8281 131.145 14.7109V12.1094C131.145 10.7109 131.27 9.53906 131.52 8.59375C131.777 7.64844 132.141 6.89063 132.609 6.32031C133.078 5.74219 133.641 5.32812 134.297 5.07812C134.961 4.82813 135.703 4.70312 136.523 4.70312C137.188 4.70312 137.797 4.78516 138.352 4.94922C138.914 5.10547 139.414 5.35938 139.852 5.71094C140.289 6.05469 140.66 6.51563 140.965 7.09375C141.277 7.66406 141.516 8.36328 141.68 9.19141C141.844 10.0195 141.926 10.9922 141.926 12.1094ZM139.746 15.0625V11.7461C139.746 10.9805 139.699 10.3086 139.605 9.73047C139.52 9.14453 139.391 8.64453 139.219 8.23047C139.047 7.81641 138.828 7.48047 138.562 7.22266C138.305 6.96484 138.004 6.77734 137.66 6.66016C137.324 6.53516 136.945 6.47266 136.523 6.47266C136.008 6.47266 135.551 6.57031 135.152 6.76562C134.754 6.95312 134.418 7.25391 134.145 7.66797C133.879 8.08203 133.676 8.625 133.535 9.29688C133.395 9.96875 133.324 10.7852 133.324 11.7461V15.0625C133.324 15.8281 133.367 16.5039 133.453 17.0898C133.547 17.6758 133.684 18.1836 133.863 18.6133C134.043 19.0352 134.262 19.3828 134.52 19.6562C134.777 19.9297 135.074 20.1328 135.41 20.2656C135.754 20.3906 136.133 20.4531 136.547 20.4531C137.078 20.4531 137.543 20.3516 137.941 20.1484C138.34 19.9453 138.672 19.6289 138.938 19.1992C139.211 18.7617 139.414 18.2031 139.547 17.5234C139.68 16.8359 139.746 16.0156 139.746 15.0625Z" fill="white"/>
<path d="M4.40625 4.9375H4.90625V4.4375H4.40625V4.9375ZM4.40625 22V22.5H4.90625V22H4.40625ZM2.14453 22H1.64453V22.5H2.14453V22ZM2.14453 4.9375V4.4375H1.64453V4.9375H2.14453ZM3.90625 4.9375V22H4.90625V4.9375H3.90625ZM4.40625 21.5H2.14453V22.5H4.40625V21.5ZM2.64453 22V4.9375H1.64453V22H2.64453ZM2.14453 5.4375H4.40625V4.4375H2.14453V5.4375ZM10.3594 12.0273H10.8594V12.0165L10.8589 12.0057L10.3594 12.0273ZM10.3594 22V22.5H10.8594V22H10.3594ZM8.19141 22H7.69141V22.5H8.19141V22ZM8.19141 9.32031V8.82031H7.69141V9.32031H8.19141ZM10.2422 9.32031L10.7417 9.29869L10.721 8.82031H10.2422V9.32031ZM9.84375 15.1797L9.82428 15.6793L10.3438 15.6995V15.1797H9.84375ZM8.94141 15.1445L8.44143 15.14L8.43706 15.6253L8.92194 15.6442L8.94141 15.1445ZM9.32812 12.7422L9.80145 12.9033L9.80197 12.9018L9.32812 12.7422ZM12 9.54297L12.2145 9.99461L12.2169 9.99347L12 9.54297ZM15.7852 9.34375L15.6226 9.81664L15.6293 9.81883L15.7852 9.34375ZM17.0625 10.1406L16.7013 10.4864L16.7052 10.4904L17.0625 10.1406ZM17.8828 11.5703L17.4066 11.7227L17.4072 11.7246L17.8828 11.5703ZM18.1641 22V22.5H18.6641V22H18.1641ZM15.9844 22H15.4844V22.5H15.9844V22ZM15.6914 12.0742L15.2408 12.2909L15.2424 12.2943L15.6914 12.0742ZM14.8359 11.1953L14.6123 11.6426L14.6199 11.6462L14.8359 11.1953ZM11.9766 11.2539L11.7498 10.8083L11.7466 10.8099L11.9766 11.2539ZM10.8398 12.1914L10.4501 11.8781L10.4464 11.8828L10.8398 12.1914ZM10.1016 13.5625L9.62939 13.398L9.62795 13.4022L10.1016 13.5625ZM9.85938 12.0273V22H10.8594V12.0273H9.85938ZM10.3594 21.5H8.19141V22.5H10.3594V21.5ZM8.69141 22V9.32031H7.69141V22H8.69141ZM8.19141 9.82031H10.2422V8.82031H8.19141V9.82031ZM9.74266 9.34194L9.85984 12.049L10.8589 12.0057L10.7417 9.29869L9.74266 9.34194ZM9.86322 14.6801L8.96087 14.6449L8.92194 15.6442L9.82428 15.6793L9.86322 14.6801ZM9.44139 15.149C9.44877 14.3289 9.57052 13.5817 9.80145 12.9033L8.8548 12.5811C8.58573 13.3715 8.44966 14.2258 8.44143 15.14L9.44139 15.149ZM9.80197 12.9018C10.0344 12.2118 10.3577 11.6226 10.7678 11.1276L9.9978 10.4896C9.50171 11.0883 9.12186 11.7882 8.85428 12.5826L9.80197 12.9018ZM10.7678 11.1276C11.1757 10.6353 11.6571 10.2594 12.2145 9.99461L11.7855 9.09133C11.0929 9.42031 10.4961 9.88813 9.9978 10.4896L10.7678 11.1276ZM12.2169 9.99347C12.7761 9.72422 13.4003 9.58594 14.0977 9.58594V8.58594C13.2638 8.58594 12.4895 8.75234 11.7831 9.09247L12.2169 9.99347ZM14.0977 9.58594C14.6772 9.58594 15.1835 9.66563 15.6226 9.81659L15.9477 8.87091C15.3869 8.67812 14.7681 8.58594 14.0977 8.58594V9.58594ZM15.6293 9.81883C16.0541 9.95823 16.4086 10.1806 16.7013 10.4864L17.4237 9.79484C17.0133 9.36623 16.5162 9.05739 15.941 8.86867L15.6293 9.81883ZM16.7052 10.4904C17.0004 10.792 17.2382 11.1964 17.4066 11.7227L18.359 11.4179C18.1524 10.7723 17.8434 10.2237 17.4198 9.79089L16.7052 10.4904ZM17.4072 11.7246C17.5738 12.2381 17.6641 12.8897 17.6641 13.6914H18.6641C18.6641 12.8213 18.5669 12.0588 18.3584 11.4161L17.4072 11.7246ZM17.6641 13.6914V22H18.6641V13.6914H17.6641ZM18.1641 21.5H15.9844V22.5H18.1641V21.5ZM16.4844 22V13.668H15.4844V22H16.4844ZM16.4844 13.668C16.4844 12.9623 16.3818 12.3466 16.1404 11.8541L15.2424 12.2943C15.3917 12.5987 15.4844 13.0455 15.4844 13.668H16.4844ZM16.142 11.8576C15.9019 11.358 15.5384 10.9775 15.052 10.7444L14.6199 11.6462C14.8835 11.7725 15.0903 11.9779 15.2408 12.2909L16.142 11.8576ZM15.0595 10.7481C14.5973 10.517 14.0549 10.4141 13.4531 10.4141V11.4141C13.9451 11.4141 14.3246 11.4987 14.6123 11.6425L15.0595 10.7481ZM13.4531 10.4141C12.8416 10.4141 12.2708 10.5432 11.7498 10.8083L12.2033 11.6995C12.5729 11.5115 12.9865 11.4141 13.4531 11.4141V10.4141ZM11.7466 10.8099C11.245 11.0697 10.8124 11.4276 10.4502 11.8781L11.2295 12.5047C11.5079 12.1584 11.8331 11.8913 12.2065 11.6979L11.7466 10.8099ZM10.4464 11.8828C10.0974 12.3279 9.82581 12.8344 9.62941 13.398L10.5737 13.727C10.7367 13.2594 10.9573 12.8518 11.2333 12.5L10.4464 11.8828ZM9.62795 13.4022C9.43752 13.9649 9.34375 14.5584 9.34375 15.1797H10.3438C10.3438 14.6604 10.4219 14.1758 10.5752 13.7228L9.62795 13.4022ZM26.7656 9.32031H27.2656V8.82031H26.7656V9.32031ZM26.7656 10.9844V11.4844H27.2656V10.9844H26.7656ZM19.9102 10.9844H19.4102V11.4844H19.9102V10.9844ZM19.9102 9.32031V8.82031H19.4102V9.32031H19.9102ZM22.2305 6.23828V5.73828H21.7305V6.23828H22.2305ZM24.3984 6.23828H24.8984V5.73828H24.3984V6.23828ZM26.3555 20.3242L26.4345 20.8179L26.4422 20.8167L26.4499 20.8152L26.3555 20.3242ZM26.8125 20.2305L27.3125 20.2272L27.3084 19.6029L26.7001 19.7433L26.8125 20.2305ZM26.8242 22L26.9758 22.4765L27.3266 22.3648L27.3242 21.9967L26.8242 22ZM26.1445 22.1523L26.0623 21.6591L26.0544 21.6605L26.0465 21.6621L26.1445 22.1523ZM22.6172 20.8633L22.1727 21.0925L22.1772 21.1007L22.6172 20.8633ZM26.2656 9.32031V10.9844H27.2656V9.32031H26.2656ZM26.7656 10.4844H19.9102V11.4844H26.7656V10.4844ZM20.4102 10.9844V9.32031H19.4102V10.9844H20.4102ZM19.9102 9.82031H26.7656V8.82031H19.9102V9.82031ZM22.2305 6.73828H24.3984V5.73828H22.2305V6.73828ZM23.8984 6.23828V18.8594H24.8984V6.23828H23.8984ZM23.8984 18.8594C23.8984 19.3254 23.9678 19.758 24.1703 20.0915L25.0251 19.5725C24.9619 19.4686 24.8984 19.2527 24.8984 18.8594H23.8984ZM24.1703 20.0915C24.3547 20.3953 24.6151 20.6266 24.9552 20.74L25.2714 19.7913C25.1896 19.764 25.1062 19.7062 25.0251 19.5725L24.1703 20.0915ZM24.9552 20.74C25.2214 20.8287 25.5018 20.8711 25.793 20.8711V19.8711C25.5997 19.8711 25.427 19.8432 25.2714 19.7913L24.9552 20.74ZM25.793 20.8711C26.0016 20.8711 26.2156 20.853 26.4345 20.8179L26.2765 19.8305C26.1047 19.858 25.9437 19.8711 25.793 19.8711V20.8711ZM26.4499 20.8152C26.6544 20.7759 26.8141 20.7432 26.9249 20.7177L26.7001 19.7433C26.6078 19.7646 26.4628 19.7944 26.261 19.8332L26.4499 20.8152ZM26.3125 20.2338L26.3242 22.0033L27.3242 21.9967L27.3125 20.2272L26.3125 20.2338ZM26.6726 21.5235C26.5326 21.5681 26.3319 21.6142 26.0623 21.6591L26.2267 22.6455C26.5197 22.5967 26.7721 22.5413 26.9758 22.4765L26.6726 21.5235ZM26.0465 21.6621C25.8153 21.7083 25.5181 21.7344 25.1484 21.7344V22.7344C25.56 22.7344 25.9269 22.7058 26.2426 22.6426L26.0465 21.6621ZM25.1484 21.7344C24.6853 21.7344 24.2709 21.6429 23.8976 21.4661L23.4696 22.3698C23.9869 22.6149 24.549 22.7344 25.1484 22.7344V21.7344ZM23.8976 21.4661C23.5613 21.3068 23.2794 21.0375 23.0572 20.6258L22.1772 21.1007C22.4862 21.6734 22.9153 22.1073 23.4696 22.3698L23.8976 21.4661ZM23.0616 20.6341C22.854 20.2316 22.7305 19.6482 22.7305 18.8477H21.7305C21.7305 19.7346 21.8647 20.495 22.1728 21.0924L23.0616 20.6341ZM22.7305 18.8477V6.23828H21.7305V18.8477H22.7305ZM32.168 21.7891L31.971 22.2487L31.9771 22.2512L32.168 21.7891ZM30.3281 20.5117L29.9617 20.852L29.9643 20.8547L30.3281 20.5117ZM29.2031 12.8594L29.6707 13.0364L29.6713 13.0349L29.2031 12.8594ZM36.6328 9.55469L36.4178 10.0061L36.4199 10.0071L36.6328 9.55469ZM38.2617 10.8672L37.8617 11.1672L37.8637 11.1699L38.2617 10.8672ZM39.1992 12.8359L38.7163 12.9654L38.7166 12.9666L39.1992 12.8359ZM39.5039 16.2695V16.7695H40.0039V16.2695H39.5039ZM30.0352 16.2695H29.5352V16.7695H30.0352V16.2695ZM30.0352 14.5V14H29.5352V14.5H30.0352ZM37.3359 14.5V15H37.8359V14.5H37.3359ZM37.3359 14.3359H37.8359V14.3221L37.8352 14.3082L37.3359 14.3359ZM36.9844 12.6953L36.515 12.8679L36.5173 12.8739L36.9844 12.6953ZM32.9297 11.1836L33.1499 11.6325L33.1567 11.6291L32.9297 11.1836ZM31.1719 17.8047L30.6941 17.9522L30.6968 17.9607L31.1719 17.8047ZM31.9102 19.1875L31.5204 19.5008L31.5242 19.5054L31.9102 19.1875ZM33.0938 20.125L32.8732 20.5737L32.8762 20.5752L33.0938 20.125ZM38.0273 18.7422L38.3384 18.3507L37.9387 18.0331L37.6295 18.4393L38.0273 18.7422ZM39.3398 19.7852L39.7571 20.0607L40.0094 19.6786L39.6509 19.3937L39.3398 19.7852ZM36.7383 21.8828L36.5608 21.4154L36.5588 21.4161L36.7383 21.8828ZM34.5703 21.7344C33.7442 21.7344 33.0094 21.5956 32.3588 21.3269L31.9771 22.2512C32.764 22.5762 33.6308 22.7344 34.5703 22.7344V21.7344ZM32.3649 21.3295C31.7151 21.051 31.1591 20.6642 30.6919 20.1687L29.9643 20.8547C30.5284 21.4529 31.1989 21.9177 31.971 22.2486L32.3649 21.3295ZM30.6945 20.1715C30.2352 19.6768 29.8782 19.0869 29.626 18.3951L28.6865 18.7377C28.9812 19.5459 29.4054 20.2529 29.9617 20.8519L30.6945 20.1715ZM29.626 18.3951C29.3748 17.706 29.2461 16.9444 29.2461 16.1055H28.2461C28.2461 17.0478 28.3909 17.9268 28.6865 18.7377L29.626 18.3951ZM29.2461 16.1055V15.6133H28.2461V16.1055H29.2461ZM29.2461 15.6133C29.2461 14.6308 29.3912 13.7745 29.6707 13.0364L28.7355 12.6823C28.4056 13.5536 28.2461 14.5332 28.2461 15.6133H29.2461ZM29.6713 13.0349C29.956 12.2757 30.3378 11.6464 30.8113 11.1375L30.0793 10.4563C29.5059 11.0724 29.0596 11.818 28.735 12.6838L29.6713 13.0349ZM30.8113 11.1375C31.2909 10.6222 31.8288 10.238 32.4261 9.97798L32.027 9.06108C31.2962 9.37922 30.6466 9.84658 30.0793 10.4563L30.8113 11.1375ZM32.4261 9.97798C33.0284 9.7158 33.6481 9.58594 34.2891 9.58594V8.58594C33.5081 8.58594 32.7528 8.74514 32.027 9.06108L32.4261 9.97798ZM34.2891 9.58594C35.1388 9.58594 35.8432 9.73248 36.4178 10.0061L36.8478 9.10326C36.1099 8.75189 35.2518 8.58594 34.2891 8.58594V9.58594ZM36.4199 10.0071C37.0134 10.2864 37.491 10.6729 37.8617 11.1672L38.6617 10.5672C38.1887 9.93647 37.5803 9.44797 36.8457 9.10228L36.4199 10.0071ZM37.8637 11.1699C38.2417 11.6668 38.5278 12.2624 38.7163 12.9654L39.6822 12.7065C39.4643 11.8938 39.1255 11.177 38.6597 10.5645L37.8637 11.1699ZM38.7166 12.9666C38.9067 13.6684 39.0039 14.4441 39.0039 15.2969H40.0039C40.0039 14.3684 39.898 13.5035 39.6818 12.7052L38.7166 12.9666ZM39.0039 15.2969V16.2695H40.0039V15.2969H39.0039ZM39.5039 15.7695H30.0352V16.7695H39.5039V15.7695ZM30.5352 16.2695V14.5H29.5352V16.2695H30.5352ZM30.0352 15H37.3359V14H30.0352V15ZM37.8359 14.5V14.3359H36.8359V14.5H37.8359ZM37.8352 14.3082C37.801 13.6936 37.6728 13.0958 37.4514 12.5167L36.5173 12.8739C36.7022 13.3573 36.8084 13.8533 36.8367 14.3637L37.8352 14.3082ZM37.4537 12.5228C37.2278 11.9085 36.8622 11.3948 36.3592 10.9924L35.7345 11.7732C36.0909 12.0583 36.3503 12.4196 36.5151 12.8678L37.4537 12.5228ZM36.3592 10.9924C35.8143 10.5564 35.1053 10.3672 34.2891 10.3672V11.3672C34.9572 11.3672 35.4201 11.5217 35.7345 11.7732L36.3592 10.9924ZM34.2891 10.3672C33.7228 10.3672 33.1912 10.4892 32.7027 10.7381L33.1567 11.6291C33.4963 11.4561 33.871 11.3672 34.2891 11.3672V10.3672ZM32.7095 10.7347C32.2162 10.9767 31.7998 11.3371 31.4596 11.8026L32.267 12.3927C32.5205 12.0457 32.815 11.7968 33.1499 11.6325L32.7095 10.7347ZM31.4596 11.8026C31.1209 12.2661 30.8673 12.8193 30.6904 13.4511L31.6534 13.7208C31.8046 13.1807 32.0119 12.7417 32.267 12.3927L31.4596 11.8026ZM30.6904 13.4511C30.5114 14.0905 30.4258 14.8133 30.4258 15.6133H31.4258C31.4258 14.8821 31.5043 14.2532 31.6534 13.7208L30.6904 13.4511ZM30.4258 15.6133V16.1055H31.4258V15.6133H30.4258ZM30.4258 16.1055C30.4258 16.753 30.5142 17.3694 30.6941 17.9522L31.6496 17.6572C31.5015 17.1774 31.4258 16.6611 31.4258 16.1055H30.4258ZM30.6968 17.9607C30.886 18.5368 31.1596 19.0519 31.5205 19.5008L32.2998 18.8742C32.02 18.5262 31.8015 18.1195 31.6469 17.6487L30.6968 17.9607ZM31.5242 19.5054C31.8973 19.9584 32.3481 20.3156 32.8732 20.5737L33.3143 19.6763C32.9175 19.4812 32.5793 19.2135 32.2961 18.8696L31.5242 19.5054ZM32.8762 20.5752C33.4217 20.8389 34.029 20.9648 34.6875 20.9648V19.9648C34.1585 19.9648 33.7033 19.8643 33.3113 19.6748L32.8762 20.5752ZM34.6875 20.9648C35.5209 20.9648 36.2617 20.7945 36.8863 20.4271L36.3793 19.5651C35.9415 19.8227 35.3854 19.9648 34.6875 19.9648V20.9648ZM36.8863 20.4271C37.4772 20.0795 37.9901 19.6166 38.4252 19.045L37.6295 18.4393C37.2677 18.9146 36.8509 19.2877 36.3793 19.5651L36.8863 20.4271ZM37.7163 19.1336L39.0288 20.1766L39.6509 19.3937L38.3384 18.3507L37.7163 19.1336ZM38.9226 19.5096C38.6762 19.8828 38.3584 20.245 37.9647 20.595L38.6291 21.3425C39.0791 20.9425 39.4567 20.5156 39.7571 20.0607L38.9226 19.5096ZM37.9647 20.595C37.5952 20.9234 37.1306 21.199 36.5608 21.4154L36.9158 22.3502C37.5803 22.0979 38.1548 21.7641 38.6291 21.3425L37.9647 20.595ZM36.5588 21.4161C36.0202 21.6233 35.3613 21.7344 34.5703 21.7344V22.7344C35.4512 22.7344 36.2376 22.6111 36.9178 22.3495L36.5588 21.4161ZM50.25 9.32031V8.82031H49.7844L49.7513 9.28469L50.25 9.32031ZM52.2188 9.32031H52.7188V8.82031H52.2188V9.32031ZM49.6406 26.3828L49.417 25.9356L49.4119 25.9382L49.6406 26.3828ZM45.3047 26.793L45.4199 26.3064L45.4152 26.3053L45.3047 26.793ZM43.5703 26.1016L43.8197 25.6682L43.8177 25.6671L43.5703 26.1016ZM42.1523 24.8008L41.7773 24.4701L41.5171 24.7652L41.7427 25.0875L42.1523 24.8008ZM43.2891 23.5117L43.6739 23.1926L43.3007 22.7425L42.914 23.181L43.2891 23.5117ZM44.9531 24.8477L44.7547 25.3066L44.7569 25.3075L44.9531 24.8477ZM49.6289 23.6875L49.193 23.4423L49.1887 23.4505L49.6289 23.6875ZM50.0508 12.1094L49.5521 12.0738L49.5508 12.0915V12.1094H50.0508ZM41.8594 12.918L41.3797 12.7769L41.3788 12.78L41.8594 12.918ZM42.8555 10.8672L42.4587 10.5628L42.4561 10.5663L42.8555 10.8672ZM44.4375 9.55469L44.6588 10.0031L44.6634 10.0008L44.4375 9.55469ZM48.6094 9.50781L48.3953 9.95974L48.4025 9.963L48.6094 9.50781ZM50.1328 10.7148L49.7384 11.0223L49.7435 11.0286L50.1328 10.7148ZM51.6328 15.1328H52.1328V15.1079L52.1303 15.0831L51.6328 15.1328ZM51.6328 16.2109L52.1307 16.257L52.1328 16.234V16.2109H51.6328ZM51.1289 18.7188L50.655 18.5591L50.6536 18.5636L51.1289 18.7188ZM50.1328 20.6172L49.7435 20.3034L49.7407 20.307L50.1328 20.6172ZM48.6094 21.8242L48.8163 22.2794L48.8211 22.2772L48.6094 21.8242ZM44.4375 21.7539L44.2049 22.1965L44.2072 22.1977L44.4375 21.7539ZM41.8594 18.3672L41.3788 18.5052L41.3805 18.5109L41.8594 18.3672ZM43.875 17.582L43.3872 17.692L43.3887 17.6985L43.875 17.582ZM44.4727 19.0469L44.0495 19.3133L44.0531 19.3188L44.4727 19.0469ZM45.5156 20.043L45.2667 20.4766L45.2728 20.48L45.5156 20.043ZM49.9219 18.7305L49.4861 18.4853L49.4832 18.4906L49.9219 18.7305ZM50.5781 17.1016L51.0612 17.2304L51.0781 17.1671V17.1016H50.5781ZM50.5781 14.2773H51.0781V14.2278L51.0684 14.1793L50.5781 14.2773ZM50.1797 13.0352L49.7191 13.23L49.7239 13.2407L50.1797 13.0352ZM49.5 11.957L49.1196 12.2818L49.1284 12.2915L49.5 11.957ZM45.5156 11.2891L45.7646 11.7227L45.7671 11.7212L45.5156 11.2891ZM44.4727 12.2969L44.0508 12.0284L44.0495 12.0305L44.4727 12.2969ZM43.875 13.7734L43.3884 13.6585L43.3872 13.6635L43.875 13.7734ZM50.25 9.82031H52.2188V8.82031H50.25V9.82031ZM51.7188 9.32031V21.7305H52.7188V9.32031H51.7188ZM51.7188 21.7305C51.7188 22.7801 51.5062 23.643 51.1055 24.3409L51.9727 24.8388C52.4782 23.9585 52.7188 22.9153 52.7188 21.7305H51.7188ZM51.1055 24.3409C50.7012 25.0448 50.1414 25.5734 49.417 25.9356L49.8642 26.83C50.7649 26.3797 51.4706 25.713 51.9727 24.8388L51.1055 24.3409ZM49.4119 25.9382C48.6888 26.3103 47.8398 26.5039 46.8516 26.5039V27.5039C47.9727 27.5039 48.9831 27.2835 49.8694 26.8274L49.4119 25.9382ZM46.8516 26.5039C46.4647 26.5039 45.9895 26.4413 45.4199 26.3064L45.1895 27.2795C45.8074 27.4259 46.3634 27.5039 46.8516 27.5039V26.5039ZM45.4152 26.3053C44.8824 26.1846 44.3508 25.9737 43.8197 25.6682L43.321 26.535C43.9305 26.8856 44.5551 27.1357 45.1942 27.2806L45.4152 26.3053ZM43.8177 25.6671C43.3216 25.3846 42.9037 25.0022 42.562 24.5141L41.7427 25.0875C42.1666 25.6931 42.694 26.1779 43.3229 26.5361L43.8177 25.6671ZM42.5274 25.1315L43.6641 23.8424L42.914 23.181L41.7773 24.4701L42.5274 25.1315ZM42.9042 23.8309C43.4702 24.5134 44.0849 25.0169 44.7547 25.3066L45.1516 24.3887C44.6651 24.1784 44.1704 23.7913 43.6739 23.1926L42.9042 23.8309ZM44.7569 25.3075C45.3976 25.5809 46.0423 25.7227 46.6875 25.7227V24.7227C46.1921 24.7227 45.6805 24.6144 45.1493 24.3878L44.7569 25.3075ZM46.6875 25.7227C47.4373 25.7227 48.113 25.5819 48.6979 25.2803L48.2396 24.3915C47.8245 24.6056 47.3127 24.7227 46.6875 24.7227V25.7227ZM48.6979 25.2803C49.2899 24.9751 49.7492 24.5188 50.0691 23.9245L49.1887 23.4505C48.9618 23.8718 48.6476 24.1812 48.2396 24.3915L48.6979 25.2803ZM50.0647 23.9326C50.3982 23.3397 50.5508 22.6327 50.5508 21.8359H49.5508C49.5508 22.508 49.4221 23.0353 49.1931 23.4424L50.0647 23.9326ZM50.5508 21.8359V12.1094H49.5508V21.8359H50.5508ZM50.5495 12.145L50.7487 9.35594L49.7513 9.28469L49.5521 12.0738L50.5495 12.145ZM42.0195 15.8008V15.5547H41.0195V15.8008H42.0195ZM42.0195 15.5547C42.0195 14.6245 42.1283 13.7929 42.34 13.056L41.3788 12.78C41.1373 13.6211 41.0195 14.5474 41.0195 15.5547H42.0195ZM42.3391 13.0591C42.5592 12.3106 42.8667 11.6832 43.2548 11.1681L42.4561 10.5663C41.9849 11.1918 41.6283 11.9316 41.3797 12.7769L42.3391 13.0591ZM43.2522 11.1715C43.6452 10.6592 44.1134 10.2723 44.6588 10.003L44.2162 9.10634C43.5272 9.44647 42.9408 9.93451 42.4588 10.5629L43.2522 11.1715ZM44.6634 10.0008C45.2026 9.72772 45.8191 9.58594 46.5234 9.58594V8.58594C45.6809 8.58594 44.9067 8.75666 44.2116 9.10861L44.6634 10.0008ZM46.5234 9.58594C47.2618 9.58594 47.8812 9.71615 48.3953 9.95968L48.8234 9.05594C48.15 8.73698 47.3789 8.58594 46.5234 8.58594V9.58594ZM48.4025 9.963C48.9291 10.2024 49.373 10.5534 49.7384 11.0222L50.5272 10.4075C50.0645 9.81382 49.4928 9.36014 48.8163 9.05263L48.4025 9.963ZM49.7435 11.0286C50.1217 11.4979 50.4272 12.0747 50.6536 12.7684L51.6042 12.4582C51.3462 11.6675 50.9877 10.9787 50.5221 10.4011L49.7435 11.0286ZM50.6536 12.7684C50.8826 13.4702 51.0444 14.2738 51.1353 15.1826L52.1303 15.0831C52.0337 14.1168 51.8596 13.2407 51.6042 12.4582L50.6536 12.7684ZM51.1328 15.1328V16.2109H52.1328V15.1328H51.1328ZM51.1349 16.1649C51.0519 17.0631 50.8906 17.86 50.6551 18.5591L51.6027 18.8784C51.8672 18.0931 52.0418 17.2182 52.1307 16.257L51.1349 16.1649ZM50.6536 18.5636C50.4272 19.2573 50.1217 19.8342 49.7435 20.3034L50.5221 20.931C50.9877 20.3533 51.3462 19.6646 51.6042 18.8739L50.6536 18.5636ZM49.7407 20.307C49.3746 20.7698 48.9284 21.1231 48.3976 21.3713L48.8211 22.2772C49.4935 21.9628 50.0629 21.5115 50.525 20.9274L49.7407 20.307ZM48.4025 21.369C47.8784 21.6072 47.2485 21.7344 46.5 21.7344V22.7344C47.3608 22.7344 48.1372 22.5881 48.8163 22.2794L48.4025 21.369ZM46.5 21.7344C45.815 21.7344 45.2076 21.5903 44.6678 21.3101L44.2072 22.1977C44.9018 22.5582 45.6694 22.7344 46.5 22.7344V21.7344ZM44.6701 21.3113C44.1292 21.027 43.6615 20.6273 43.2659 20.1045L42.4685 20.708C42.9479 21.3415 43.527 21.8402 44.2049 22.1965L44.6701 21.3113ZM43.2659 20.1045C42.8685 19.5794 42.5577 18.9548 42.3383 18.2235L41.3805 18.5109C41.6298 19.3421 41.9908 20.0768 42.4685 20.708L43.2659 20.1045ZM42.34 18.2292C42.1277 17.4901 42.0195 16.6816 42.0195 15.8008H41.0195C41.0195 16.7637 41.1379 17.6661 41.3788 18.5052L42.34 18.2292ZM43.1875 15.5547V15.8008H44.1875V15.5547H43.1875ZM43.1875 15.8008C43.1875 16.4665 43.2532 17.0974 43.3872 17.692L44.3628 17.4721C44.2468 16.9573 44.1875 16.4007 44.1875 15.8008H43.1875ZM43.3887 17.6985C43.5325 18.2987 43.751 18.8391 44.0495 19.3133L44.8958 18.7805C44.6631 18.4109 44.4832 17.9747 44.3613 17.4656L43.3887 17.6985ZM44.0531 19.3188C44.3682 19.8051 44.7735 20.1935 45.2667 20.4766L45.7646 19.6093C45.414 19.4081 45.1239 19.1324 44.8922 18.7749L44.0531 19.3188ZM45.2728 20.48C45.7833 20.7637 46.3745 20.8945 47.0273 20.8945V19.8945C46.5083 19.8945 46.0917 19.791 45.7584 19.6059L45.2728 20.48ZM47.0273 20.8945C47.8155 20.8945 48.511 20.7273 49.0811 20.3567L48.5361 19.5183C48.1687 19.7571 47.6767 19.8945 47.0273 19.8945V20.8945ZM49.0811 20.3567C49.6206 20.006 50.0482 19.5415 50.3606 18.9704L49.4832 18.4906C49.2487 18.9194 48.9341 19.2596 48.5361 19.5183L49.0811 20.3567ZM50.3577 18.9756C50.6607 18.4369 50.8948 17.8546 51.0612 17.2304L50.095 16.9727C49.949 17.5204 49.7456 18.024 49.4861 18.4853L50.3577 18.9756ZM51.0781 17.1016V14.2773H50.0781V17.1016H51.0781ZM51.0684 14.1793C50.9751 13.7127 50.8307 13.2625 50.6355 12.8296L49.7239 13.2407C49.888 13.6046 50.0093 13.9826 50.0878 14.3754L51.0684 14.1793ZM50.6402 12.8403C50.4477 12.3855 50.1919 11.9783 49.8716 11.6225L49.1284 12.2915C49.3706 12.5607 49.5679 12.8724 49.7192 13.23L50.6402 12.8403ZM49.8803 11.6324C49.557 11.2537 49.1577 10.9572 48.69 10.7413L48.2709 11.6493C48.6158 11.8084 48.8961 12.0197 49.1197 12.2817L49.8803 11.6324ZM48.69 10.7413C48.2051 10.5175 47.6543 10.4141 47.0508 10.4141V11.4141C47.541 11.4141 47.9433 11.4981 48.2709 11.6493L48.69 10.7413ZM47.0508 10.4141C46.3859 10.4141 45.7838 10.5545 45.2642 10.8569L45.7671 11.7212C46.1068 11.5236 46.5281 11.4141 47.0508 11.4141V10.4141ZM45.2667 10.8554C44.7713 11.1398 44.3656 11.5338 44.0508 12.0284L44.8945 12.5653C45.1266 12.2005 45.4162 11.9227 45.7646 11.7227L45.2667 10.8554ZM44.0495 12.0305C43.7503 12.5058 43.5319 13.0508 43.3884 13.6585L44.3616 13.8883C44.4837 13.3711 44.6638 12.9317 44.8958 12.5633L44.0495 12.0305ZM43.3872 13.6635C43.2532 14.2581 43.1875 14.889 43.1875 15.5547H44.1875C44.1875 14.9548 44.2468 14.3982 44.3628 13.8834L43.3872 13.6635ZM57.6797 11.3125H58.1797V11.3051L58.1795 11.2978L57.6797 11.3125ZM57.6797 22V22.5H58.1797V22H57.6797ZM55.5117 22H55.0117V22.5H55.5117V22ZM55.5117 9.32031V8.82031H55.0117V9.32031H55.5117ZM57.6211 9.32031L58.1209 9.30561L58.1066 8.82031H57.6211V9.32031ZM61.6406 9.25L62.1406 9.25291L62.1424 8.94188L61.8642 8.80279L61.6406 9.25ZM61.6289 11.2656L61.5227 11.7542L62.1253 11.8852L62.1289 11.2685L61.6289 11.2656ZM61.1133 11.1953L61.0635 11.6928L61.0765 11.6941L61.0895 11.6947L61.1133 11.1953ZM57.6445 13.0703L57.1803 12.8846L57.1784 12.8895L57.6445 13.0703ZM57.3516 14.3359L57.6014 14.769L57.8231 14.6411L57.849 14.3865L57.3516 14.3359ZM56.7422 14.6875H56.2422V15.5532L56.992 15.1206L56.7422 14.6875ZM56.9648 12.5312L56.4778 12.418L56.4766 12.4234L56.9648 12.5312ZM57.6797 10.75L58.1044 11.0138L58.1062 11.011L57.6797 10.75ZM58.8984 9.53125L59.1517 9.9624L59.1537 9.96118L58.8984 9.53125ZM61.2188 9.14453L61.1243 9.63553L61.1335 9.6373L61.1427 9.63872L61.2188 9.14453ZM57.1797 11.3125V22H58.1797V11.3125H57.1797ZM57.6797 21.5H55.5117V22.5H57.6797V21.5ZM56.0117 22V9.32031H55.0117V22H56.0117ZM55.5117 9.82031H57.6211V8.82031H55.5117V9.82031ZM57.1213 9.33501L57.1799 11.3272L58.1795 11.2978L58.1209 9.30561L57.1213 9.33501ZM61.1406 9.24709L61.1289 11.2627L62.1289 11.2685L62.1406 9.25291L61.1406 9.24709ZM61.7351 10.777C61.5315 10.7328 61.3319 10.7052 61.1371 10.6959L61.0895 11.6947C61.2228 11.7011 61.367 11.7204 61.5227 11.7542L61.7351 10.777ZM61.163 10.6978C60.9863 10.6801 60.7894 10.6719 60.5742 10.6719V11.6719C60.7653 11.6719 60.9278 11.6793 61.0635 11.6928L61.163 10.6978ZM60.5742 10.6719C60.0227 10.6719 59.515 10.758 59.0611 10.9433L59.4389 11.8692C59.7506 11.742 60.1258 11.6719 60.5742 11.6719V10.6719ZM59.0611 10.9433C58.6168 11.1246 58.2318 11.3826 57.9138 11.7192L58.6409 12.4058C58.8542 12.1799 59.1176 12.0004 59.4389 11.8692L59.0611 10.9433ZM57.9138 11.7192C57.6014 12.05 57.3579 12.4407 57.1803 12.8846L58.1088 13.256C58.2437 12.9187 58.4221 12.6375 58.6409 12.4058L57.9138 11.7192ZM57.1784 12.8895C57.0118 13.3191 56.905 13.7854 56.8541 14.2854L57.849 14.3865C57.8919 13.9646 57.9804 13.5871 58.1107 13.2511L57.1784 12.8895ZM57.1017 13.9028L56.4923 14.2544L56.992 15.1206L57.6014 14.769L57.1017 13.9028ZM57.2422 14.6875C57.2422 13.9541 57.3133 13.2719 57.4531 12.6391L56.4766 12.4234C56.3195 13.1344 56.2422 13.8896 56.2422 14.6875H57.2422ZM57.4518 12.6445C57.5974 12.0187 57.8166 11.4772 58.1044 11.0138L57.255 10.4862C56.9022 11.0541 56.6448 11.7 56.4778 12.418L57.4518 12.6445ZM58.1062 11.011C58.3869 10.5522 58.7356 10.2067 59.1516 9.96239L58.6452 9.10011C58.0769 9.43388 57.6131 9.90089 57.2532 10.489L58.1062 11.011ZM59.1537 9.96118C59.5634 9.71792 60.0655 9.58594 60.6797 9.58594V8.58594C59.9189 8.58594 59.2335 8.75083 58.6432 9.10132L59.1537 9.96118ZM60.6797 9.58594C60.796 9.58594 60.943 9.60066 61.1243 9.63553L61.3132 8.65353C61.0883 8.61028 60.8759 8.58594 60.6797 8.58594V9.58594ZM61.1427 9.63872C61.2348 9.65288 61.3046 9.66674 61.3553 9.67941C61.4101 9.69311 61.4249 9.70115 61.417 9.69721L61.8642 8.80279C61.7092 8.72529 61.4986 8.68171 61.2948 8.65035L61.1427 9.63872ZM70.3477 12.0039L69.9041 12.2349L69.9101 12.2459L70.3477 12.0039ZM66.5391 11.1133L66.3328 10.6578L66.3295 10.6593L66.5391 11.1133ZM65.5781 11.8516L65.1818 11.5467L65.1769 11.5532L65.5781 11.8516ZM65.2383 12.8359V13.3359H65.7383V12.8359H65.2383ZM63.0703 12.8359H62.5703V13.3359H63.0703V12.8359ZM64.4297 10.2812L64.7471 10.6676L64.7478 10.667L64.4297 10.2812ZM66.0234 9.41406L66.1851 9.88721L66.1886 9.88599L66.0234 9.41406ZM70.5469 9.55469L70.3438 10.0116L70.3457 10.0124L70.5469 9.55469ZM72.2109 10.9727L71.7878 11.2391L71.7917 11.2452L72.2109 10.9727ZM72.9258 20.582L72.4311 20.655L72.4324 20.6629L72.9258 20.582ZM73.2656 21.8125H73.7656V21.7092L73.7247 21.6143L73.2656 21.8125ZM73.2656 22V22.5H73.7656V22H73.2656ZM71.0039 22L70.5458 22.2004L70.6769 22.5H71.0039V22ZM70.7461 21.0039L70.2515 21.0772L70.2517 21.0785L70.7461 21.0039ZM71.0273 14.3125L71.5273 14.3048L71.5197 13.8125H71.0273V14.3125ZM71.0508 15.8359V16.3359H71.5585L71.5507 15.8282L71.0508 15.8359ZM67.207 15.9883L67.3021 16.4792L67.3096 16.4776L67.207 15.9883ZM65.2383 17.1602L65.6681 17.4157L65.671 17.4107L65.2383 17.1602ZM66.0586 20.0547L65.8198 20.4941L65.8312 20.5L66.0586 20.0547ZM70.3711 18.8828L69.9711 18.5828L69.9674 18.5878L70.3711 18.8828ZM70.8633 17.6992L71.2372 17.3673L70.4378 16.4667L70.3642 17.6687L70.8633 17.6992ZM71.7891 18.7422L72.2823 18.8244L72.3215 18.5888L72.163 18.4103L71.7891 18.7422ZM70.3711 20.9805L70.706 21.3518L70.7064 21.3514L70.3711 20.9805ZM68.9414 21.8828L69.1384 22.3424L69.1415 22.341L68.9414 21.8828ZM64.8281 21.7305L64.5959 22.1733L64.5981 22.1744L64.8281 21.7305ZM63.3281 20.3828L62.9024 20.6452L62.9068 20.652L63.3281 20.3828ZM63.1992 16.6797L63.6437 16.9087L63.6451 16.906L63.1992 16.6797ZM64.3477 15.3789L64.6309 15.791L64.6352 15.7879L64.3477 15.3789ZM71.1523 19.832V13.3047H70.1523V19.832H71.1523ZM71.1523 13.3047C71.1523 12.7362 71.0365 12.2161 70.7852 11.7619L69.9101 12.2459C70.0651 12.526 70.1523 12.8731 70.1523 13.3047H71.1523ZM70.7911 11.7729C70.5449 11.3002 70.1696 10.9387 69.6841 10.6913L69.2299 11.5822C69.5414 11.7409 69.7598 11.9576 69.9042 12.2349L70.7911 11.7729ZM69.6841 10.6913C69.197 10.4429 68.6218 10.332 67.9805 10.332V11.332C68.511 11.332 68.9202 11.4243 69.2299 11.5822L69.6841 10.6913ZM67.9805 10.332C67.3767 10.332 66.8235 10.4356 66.3328 10.6578L66.7453 11.5688C67.0828 11.4159 67.4905 11.332 67.9805 11.332V10.332ZM66.3295 10.6593C65.8619 10.8751 65.473 11.1682 65.1818 11.5467L65.9744 12.1564C66.152 11.9256 66.4037 11.7265 66.7486 11.5673L66.3295 10.6593ZM65.1769 11.5532C64.8916 11.9368 64.7383 12.3681 64.7383 12.8359H65.7383C65.7383 12.6006 65.8115 12.3757 65.9794 12.1499L65.1769 11.5532ZM65.2383 12.3359H63.0703V13.3359H65.2383V12.3359ZM63.5703 12.8359C63.5703 12.4726 63.6635 12.1027 63.8643 11.7212L62.9794 11.2554C62.7115 11.7645 62.5703 12.293 62.5703 12.8359H63.5703ZM63.8643 11.7212C64.064 11.3418 64.3546 10.99 64.7471 10.6676L64.1123 9.89489C63.6297 10.2913 63.2485 10.7442 62.9794 11.2554L63.8643 11.7212ZM64.7478 10.667C65.141 10.3428 65.6176 10.0812 66.1851 9.88719L65.8617 8.94093C65.1949 9.16883 64.609 9.48535 64.1116 9.89548L64.7478 10.667ZM66.1886 9.88599C66.753 9.68847 67.3914 9.58594 68.1094 9.58594V8.58594C67.2961 8.58594 66.5439 8.70215 65.8583 8.94213L66.1886 9.88599ZM68.1094 9.58594C68.9749 9.58594 69.716 9.73256 70.3438 10.0116L70.7499 9.09778C69.9715 8.75181 69.0876 8.58594 68.1094 8.58594V9.58594ZM70.3457 10.0124C70.9689 10.2864 71.4447 10.6941 71.7878 11.2391L72.6341 10.7062C72.1803 9.98555 71.5467 9.448 70.7481 9.09696L70.3457 10.0124ZM71.7917 11.2452C72.1328 11.7698 72.3203 12.4538 72.3203 13.3281H73.3203C73.3203 12.3119 73.1016 11.4255 72.6302 10.7002L71.7917 11.2452ZM72.3203 13.3281V19.2344H73.3203V13.3281H72.3203ZM72.3203 19.2344C72.3203 19.6838 72.3577 20.1576 72.4311 20.655L73.4204 20.5091C73.3532 20.0533 73.3203 19.6287 73.3203 19.2344H72.3203ZM72.4324 20.6629C72.5153 21.1689 72.6381 21.6204 72.8066 22.0107L73.7247 21.6143C73.5963 21.3171 73.4925 20.9483 73.4192 20.5011L72.4324 20.6629ZM72.7656 21.8125V22H73.7656V21.8125H72.7656ZM73.2656 21.5H71.0039V22.5H73.2656V21.5ZM71.462 21.7996C71.3769 21.6051 71.2995 21.3205 71.2405 20.9293L70.2517 21.0785C70.3176 21.5155 70.4122 21.8949 70.5458 22.2004L71.462 21.7996ZM71.2407 20.9306C71.1811 20.5287 71.1523 20.1629 71.1523 19.832H70.1523C70.1523 20.22 70.186 20.6354 70.2515 21.0772L71.2407 20.9306ZM70.5274 14.3202L70.5508 15.8436L71.5507 15.8282L71.5273 14.3048L70.5274 14.3202ZM71.0508 15.3359H68.8594V16.3359H71.0508V15.3359ZM68.8594 15.3359C68.2158 15.3359 67.6296 15.3888 67.1044 15.4989L67.3096 16.4776C67.7532 16.3846 68.2686 16.3359 68.8594 16.3359V15.3359ZM67.112 15.4974C66.5867 15.5991 66.1224 15.7602 65.7325 15.9922L66.244 16.8515C66.5104 16.693 66.8587 16.565 67.302 16.4792L67.112 15.4974ZM65.7325 15.9922C65.3396 16.2261 65.0249 16.5309 64.8056 16.9096L65.671 17.4107C65.7954 17.1957 65.9807 17.0082 66.244 16.8515L65.7325 15.9922ZM64.8085 16.9046C64.5837 17.2827 64.4805 17.7138 64.4805 18.1797H65.4805C65.4805 17.8643 65.5491 17.6157 65.668 17.4157L64.8085 16.9046ZM64.4805 18.1797C64.4805 18.6564 64.5888 19.1032 64.8115 19.5097L65.6885 19.0294C65.5518 18.7797 65.4805 18.4998 65.4805 18.1797H64.4805ZM64.8115 19.5097C65.0415 19.9298 65.3843 20.2573 65.8198 20.494L66.2974 19.6154C66.0141 19.4614 65.8179 19.2655 65.6885 19.0294L64.8115 19.5097ZM65.8312 20.5C66.2861 20.7323 66.818 20.8359 67.4062 20.8359V19.8359C66.932 19.8359 66.5654 19.7521 66.286 19.6094L65.8312 20.5ZM67.4062 20.8359C68.1427 20.8359 68.8143 20.6794 69.4063 20.3515L68.9218 19.4767C68.4982 19.7113 67.9979 19.8359 67.4062 19.8359V20.8359ZM69.4063 20.3515C69.9679 20.0404 70.429 19.6511 70.7748 19.1778L69.9674 18.5878C69.7195 18.9271 69.3758 19.2252 68.9218 19.4767L69.4063 20.3515ZM70.7711 19.1828C71.1158 18.7232 71.3313 18.2371 71.3623 17.7298L70.3642 17.6687C70.3484 17.9269 70.2358 18.2299 69.9711 18.5828L70.7711 19.1828ZM70.4893 18.0311L71.4151 19.0741L72.163 18.4103L71.2372 17.3673L70.4893 18.0311ZM71.2959 18.66C71.2549 18.9055 71.1379 19.208 70.9165 19.5723L71.771 20.0917C72.034 19.6591 72.2138 19.2351 72.2823 18.8244L71.2959 18.66ZM70.9165 19.5723C70.7034 19.923 70.4123 20.2693 70.0358 20.6095L70.7064 21.3514C71.1424 20.9573 71.4998 20.538 71.771 20.0917L70.9165 19.5723ZM70.0362 20.6092C69.6825 20.9282 69.2529 21.2012 68.7413 21.4246L69.1415 22.341C69.7393 22.08 70.2628 21.7515 70.706 21.3518L70.0362 20.6092ZM68.7444 21.4232C68.2687 21.6271 67.7201 21.7344 67.0898 21.7344V22.7344C67.8346 22.7344 68.5203 22.6073 69.1384 22.3424L68.7444 21.4232ZM67.0898 21.7344C66.2964 21.7344 65.6239 21.5796 65.0581 21.2865L64.5981 22.1744C65.3292 22.5532 66.1645 22.7344 67.0898 22.7344V21.7344ZM65.0603 21.2877C64.4901 20.9887 64.0581 20.5967 63.7495 20.1136L62.9068 20.652C63.3169 21.2939 63.8849 21.8004 64.5959 22.1733L65.0603 21.2877ZM63.7538 20.1204C63.4533 19.633 63.3008 19.0879 63.3008 18.4727H62.3008C62.3008 19.2636 62.4999 19.992 62.9025 20.6452L63.7538 20.1204ZM63.3008 18.4727C63.3008 17.859 63.4203 17.3422 63.6437 16.9087L62.7547 16.4507C62.4468 17.0484 62.3008 17.727 62.3008 18.4727H63.3008ZM63.6451 16.906C63.8716 16.4596 64.1974 16.089 64.6309 15.7909L64.0644 14.9669C63.4979 15.3563 63.0581 15.8529 62.7533 16.4534L63.6451 16.906ZM64.6352 15.7879C65.0773 15.4771 65.621 15.2339 66.2761 15.0665L66.0285 14.0976C65.2775 14.2895 64.618 14.5776 64.0601 14.9699L64.6352 15.7879ZM66.2761 15.0665C66.9319 14.8989 67.6745 14.8125 68.5078 14.8125V13.8125C67.6067 13.8125 66.7791 13.9058 66.0285 14.0976L66.2761 15.0665ZM68.5078 14.8125H71.0273V13.8125H68.5078V14.8125ZM81.5391 9.32031H82.0391V8.82031H81.5391V9.32031ZM81.5391 10.9844V11.4844H82.0391V10.9844H81.5391ZM74.6836 10.9844H74.1836V11.4844H74.6836V10.9844ZM74.6836 9.32031V8.82031H74.1836V9.32031H74.6836ZM77.0039 6.23828V5.73828H76.5039V6.23828H77.0039ZM79.1719 6.23828H79.6719V5.73828H79.1719V6.23828ZM81.1289 20.3242L81.2079 20.8179L81.2156 20.8167L81.2233 20.8152L81.1289 20.3242ZM81.5859 20.2305L82.0859 20.2272L82.0818 19.6029L81.4735 19.7433L81.5859 20.2305ZM81.5977 22L81.7493 22.4765L82.1001 22.3648L82.0976 21.9967L81.5977 22ZM80.918 22.1523L80.8358 21.6591L80.8278 21.6605L80.8199 21.6621L80.918 22.1523ZM77.3906 20.8633L76.9461 21.0925L76.9506 21.1007L77.3906 20.8633ZM81.0391 9.32031V10.9844H82.0391V9.32031H81.0391ZM81.5391 10.4844H74.6836V11.4844H81.5391V10.4844ZM75.1836 10.9844V9.32031H74.1836V10.9844H75.1836ZM74.6836 9.82031H81.5391V8.82031H74.6836V9.82031ZM77.0039 6.73828H79.1719V5.73828H77.0039V6.73828ZM78.6719 6.23828V18.8594H79.6719V6.23828H78.6719ZM78.6719 18.8594C78.6719 19.3254 78.7412 19.758 78.9437 20.0915L79.7985 19.5725C79.7354 19.4686 79.6719 19.2527 79.6719 18.8594H78.6719ZM78.9437 20.0915C79.1282 20.3953 79.3886 20.6266 79.7286 20.74L80.0448 19.7913C79.963 19.764 79.8796 19.7062 79.7985 19.5725L78.9437 20.0915ZM79.7286 20.74C79.9949 20.8287 80.2753 20.8711 80.5664 20.8711V19.8711C80.3732 19.8711 80.2004 19.8432 80.0448 19.7913L79.7286 20.74ZM80.5664 20.8711C80.775 20.8711 80.989 20.853 81.2079 20.8179L81.0499 19.8305C80.8781 19.858 80.7171 19.8711 80.5664 19.8711V20.8711ZM81.2233 20.8152C81.4278 20.7759 81.5875 20.7432 81.6984 20.7177L81.4735 19.7433C81.3812 19.7646 81.2362 19.7944 81.0345 19.8332L81.2233 20.8152ZM81.0859 20.2338L81.0977 22.0033L82.0976 21.9967L82.0859 20.2272L81.0859 20.2338ZM81.4461 21.5235C81.306 21.5681 81.1053 21.6142 80.8358 21.6591L81.0002 22.6455C81.2931 22.5967 81.5456 22.5413 81.7493 22.4765L81.4461 21.5235ZM80.8199 21.6621C80.5887 21.7083 80.2916 21.7344 79.9219 21.7344V22.7344C80.3334 22.7344 80.7004 22.7058 81.016 22.6426L80.8199 21.6621ZM79.9219 21.7344C79.4588 21.7344 79.0444 21.6429 78.6711 21.4661L78.243 22.3698C78.7603 22.6149 79.3225 22.7344 79.9219 22.7344V21.7344ZM78.6711 21.4661C78.3347 21.3068 78.0528 21.0375 77.8306 20.6258L76.9506 21.1007C77.2597 21.6734 77.6887 22.1073 78.243 22.3698L78.6711 21.4661ZM77.835 20.6341C77.6275 20.2316 77.5039 19.6482 77.5039 18.8477H76.5039C76.5039 19.7346 76.6382 20.495 76.9462 21.0924L77.835 20.6341ZM77.5039 18.8477V6.23828H76.5039V18.8477H77.5039ZM83.6719 12.9883L84.1453 13.1492L84.1457 13.1478L83.6719 12.9883ZM84.8203 10.9375L85.1985 11.2646L85.2007 11.2621L84.8203 10.9375ZM86.6367 9.57812L86.8421 10.034L86.8462 10.0321L86.6367 9.57812ZM91.4297 9.57812L91.2201 10.0321L91.2262 10.0348L91.4297 9.57812ZM93.2578 10.9375L92.8774 11.2621L92.8822 11.2675L93.2578 10.9375ZM94.418 12.9883L93.9441 13.1478L93.9446 13.1492L94.418 12.9883ZM93.2578 20.3945L92.88 20.0671L92.8796 20.0675L93.2578 20.3945ZM91.4414 21.7539L91.6487 22.2089L91.6509 22.2079L91.4414 21.7539ZM86.6484 21.7539L86.4389 22.2079L86.443 22.2098L86.6484 21.7539ZM84.8203 20.3945L84.4399 20.7191L84.4447 20.7245L84.8203 20.3945ZM85.6641 17.5938L85.1806 17.7213L85.1811 17.723L85.6641 17.5938ZM86.332 19.0703L85.9206 19.3545L85.9242 19.3595L86.332 19.0703ZM87.4688 20.0898L87.2272 20.5277L87.2331 20.5308L87.4688 20.0898ZM90.6094 20.0898L90.8483 20.5291L90.8509 20.5276L90.6094 20.0898ZM92.4023 17.5938L91.9206 17.4599L91.9193 17.4645L92.4023 17.5938ZM92.4023 13.7617L91.9188 13.8893L91.9211 13.8973L92.4023 13.7617ZM91.7227 12.2734L91.3088 12.5542L91.3148 12.5627L91.7227 12.2734ZM90.5977 11.2422L90.3529 11.6782L90.3561 11.68L90.5977 11.2422ZM87.457 11.2422L87.2155 10.8044L87.2123 10.8062L87.457 11.2422ZM86.332 12.2734L85.9217 11.9877L85.9207 11.9892L86.332 12.2734ZM85.6641 13.7617L86.1471 13.891L86.1475 13.8893L85.6641 13.7617ZM83.7734 15.8008V15.5312H82.7734V15.8008H83.7734ZM83.7734 15.5312C83.7734 14.6661 83.8991 13.8734 84.1453 13.1492L83.1985 12.8273C82.9134 13.6657 82.7734 14.5683 82.7734 15.5312H83.7734ZM84.1457 13.1478C84.3925 12.4147 84.7446 11.7894 85.1985 11.2646L84.4421 10.6104C83.896 11.2419 83.4825 11.9837 83.198 12.8288L84.1457 13.1478ZM85.2007 11.2621C85.6521 10.733 86.1976 10.3244 86.8421 10.034L86.4313 9.12226C85.654 9.4725 84.9885 9.97015 84.44 10.6129L85.2007 11.2621ZM86.8462 10.0321C87.4836 9.73795 88.2076 9.58594 89.0273 9.58594V8.58594C88.0814 8.58594 87.2117 8.76205 86.4272 9.12415L86.8462 10.0321ZM89.0273 9.58594C89.8556 9.58594 90.5834 9.73821 91.2202 10.0321L91.6392 9.12415C90.8541 8.76179 89.9804 8.58594 89.0273 8.58594V9.58594ZM91.2262 10.0348C91.8784 10.3255 92.4269 10.734 92.8775 11.2621L93.6382 10.6129C93.0887 9.96908 92.4185 9.47139 91.6332 9.12142L91.2262 10.0348ZM92.8822 11.2675C93.3428 11.7919 93.6979 12.4163 93.9441 13.1478L94.8918 12.8288C94.6068 11.9821 94.1885 11.2394 93.6335 10.6075L92.8822 11.2675ZM93.9446 13.1492C94.1908 13.8734 94.3164 14.6661 94.3164 15.5312H95.3164C95.3164 14.5683 95.1764 13.6657 94.8914 12.8273L93.9446 13.1492ZM94.3164 15.5312V15.8008H95.3164V15.5312H94.3164ZM94.3164 15.8008C94.3164 16.666 94.1908 17.4586 93.9446 18.1828L94.8914 18.5047C95.1764 17.6664 95.3164 16.7637 95.3164 15.8008H94.3164ZM93.9446 18.1828C93.6984 18.9069 93.3428 19.533 92.88 20.0671L93.6357 20.722C94.1884 20.0842 94.6063 19.3431 94.8914 18.5047L93.9446 18.1828ZM92.8796 20.0675C92.4273 20.5904 91.8798 21.0009 91.2319 21.2999L91.6509 22.2079C92.4249 21.8507 93.0883 21.3549 93.636 20.7216L92.8796 20.0675ZM91.2341 21.2989C90.6053 21.5854 89.8808 21.7344 89.0508 21.7344V22.7344C90.002 22.7344 90.8713 22.5631 91.6487 22.2089L91.2341 21.2989ZM89.0508 21.7344C88.2209 21.7344 87.4916 21.5854 86.8538 21.298L86.443 22.2098C87.2271 22.563 88.0994 22.7344 89.0508 22.7344V21.7344ZM86.858 21.2999C86.2093 21.0005 85.6569 20.5893 85.196 20.0646L84.4447 20.7245C84.9994 21.3561 85.6657 21.851 86.4389 22.2079L86.858 21.2999ZM85.2007 20.07C84.7446 19.5355 84.392 18.9084 84.1453 18.1828L83.1985 18.5047C83.483 19.3416 83.896 20.0817 84.44 20.7191L85.2007 20.07ZM84.1453 18.1828C83.8991 17.4586 83.7734 16.666 83.7734 15.8008H82.7734C82.7734 16.7637 82.9134 17.6664 83.1985 18.5047L84.1453 18.1828ZM84.9414 15.5312V15.8008H85.9414V15.5312H84.9414ZM84.9414 15.8008C84.9414 16.4729 85.0203 17.1137 85.1806 17.7213L86.1475 17.4662C86.011 16.9488 85.9414 16.3943 85.9414 15.8008H84.9414ZM85.1811 17.723C85.3428 18.3276 85.5881 18.8732 85.9207 19.3545L86.7434 18.7861C86.4822 18.408 86.2822 17.9693 86.1471 17.4645L85.1811 17.723ZM85.9242 19.3595C86.2716 19.8495 86.707 20.2406 87.2272 20.5276L87.7103 19.6521C87.3243 19.4391 87.0018 19.1505 86.7399 18.7811L85.9242 19.3595ZM87.2331 20.5308C87.7702 20.8179 88.3811 20.9531 89.0508 20.9531V19.9531C88.5174 19.9531 88.0736 19.8462 87.7044 19.6489L87.2331 20.5308ZM89.0508 20.9531C89.7136 20.9531 90.318 20.8175 90.8483 20.5291L90.3705 19.6506C90.0101 19.8466 89.5754 19.9531 89.0508 19.9531V20.9531ZM90.8509 20.5276C91.3724 20.2399 91.8053 19.8472 92.1457 19.3545L91.323 18.7861C91.0697 19.1528 90.7526 19.4398 90.3678 19.6521L90.8509 20.5276ZM92.1457 19.3545C92.4783 18.8732 92.7236 18.3276 92.8853 17.723L91.9193 17.4645C91.7843 17.9693 91.5842 18.408 91.323 18.7861L92.1457 19.3545ZM92.8841 17.7276C93.0534 17.118 93.1367 16.4751 93.1367 15.8008H92.1367C92.1367 16.3921 92.0638 16.9445 91.9206 17.4599L92.8841 17.7276ZM93.1367 15.8008V15.5312H92.1367V15.8008H93.1367ZM93.1367 15.5312C93.1367 14.8643 93.0533 14.2285 92.8836 13.6261L91.9211 13.8973C92.0639 14.4043 92.1367 14.9482 92.1367 15.5312H93.1367ZM92.8858 13.6341C92.7237 13.0197 92.4733 12.4677 92.1305 11.9842L91.3148 12.5627C91.5814 12.9386 91.7842 13.3787 91.9189 13.8893L92.8858 13.6341ZM92.1364 11.9927C91.7963 11.4915 91.3628 11.0933 90.8392 10.8044L90.3561 11.68C90.7387 11.8911 91.0553 12.1804 91.3089 12.5542L92.1364 11.9927ZM90.8424 10.8062C90.31 10.5073 89.6993 10.3672 89.0273 10.3672V11.3672C89.5585 11.3672 89.9946 11.4771 90.3529 11.6782L90.8424 10.8062ZM89.0273 10.3672C88.3617 10.3672 87.7529 10.5079 87.2155 10.8044L87.6986 11.68C88.0674 11.4765 88.5055 11.3672 89.0273 11.3672V10.3672ZM87.2123 10.8062C86.6982 11.0948 86.2676 11.4911 85.9217 11.9877L86.7423 12.5592C87.0058 12.1808 87.3252 11.8896 87.7018 11.6782L87.2123 10.8062ZM85.9207 11.9892C85.5873 12.4717 85.3422 13.022 85.1806 13.6341L86.1475 13.8893C86.2828 13.3765 86.483 12.9346 86.7434 12.5577L85.9207 11.9892ZM85.1811 13.6325C85.0204 14.2329 84.9414 14.8664 84.9414 15.5312H85.9414C85.9414 14.9461 86.0109 14.4 86.1471 13.891L85.1811 13.6325ZM99.7031 11.3125H100.203V11.3051L100.203 11.2978L99.7031 11.3125ZM99.7031 22V22.5H100.203V22H99.7031ZM97.5352 22H97.0352V22.5H97.5352V22ZM97.5352 9.32031V8.82031H97.0352V9.32031H97.5352ZM99.6445 9.32031L100.144 9.30561L100.13 8.82031H99.6445V9.32031ZM103.664 9.25L104.164 9.25291L104.166 8.94188L103.888 8.80279L103.664 9.25ZM103.652 11.2656L103.546 11.7542L104.149 11.8852L104.152 11.2685L103.652 11.2656ZM103.137 11.1953L103.087 11.6928L103.1 11.6941L103.113 11.6947L103.137 11.1953ZM99.668 13.0703L99.2037 12.8846L99.2018 12.8895L99.668 13.0703ZM99.375 14.3359L99.6249 14.769L99.8465 14.6411L99.8724 14.3865L99.375 14.3359ZM98.7656 14.6875H98.2656V15.5532L99.0155 15.1206L98.7656 14.6875ZM98.9883 12.5312L98.5012 12.418L98.5001 12.4234L98.9883 12.5312ZM99.7031 10.75L100.128 11.0138L100.13 11.011L99.7031 10.75ZM100.922 9.53125L101.175 9.9624L101.177 9.96118L100.922 9.53125ZM103.242 9.14453L103.148 9.63553L103.157 9.6373L103.166 9.63872L103.242 9.14453ZM99.2031 11.3125V22H100.203V11.3125H99.2031ZM99.7031 21.5H97.5352V22.5H99.7031V21.5ZM98.0352 22V9.32031H97.0352V22H98.0352ZM97.5352 9.82031H99.6445V8.82031H97.5352V9.82031ZM99.1447 9.33501L99.2033 11.3272L100.203 11.2978L100.144 9.30561L99.1447 9.33501ZM103.164 9.24709L103.152 11.2627L104.152 11.2685L104.164 9.25291L103.164 9.24709ZM103.759 10.777C103.555 10.7328 103.355 10.7052 103.161 10.6959L103.113 11.6947C103.246 11.7011 103.39 11.7204 103.546 11.7542L103.759 10.777ZM103.186 10.6978C103.01 10.6801 102.813 10.6719 102.598 10.6719V11.6719C102.789 11.6719 102.951 11.6793 103.087 11.6928L103.186 10.6978ZM102.598 10.6719C102.046 10.6719 101.538 10.758 101.084 10.9433L101.462 11.8692C101.774 11.742 102.149 11.6719 102.598 11.6719V10.6719ZM101.084 10.9433C100.64 11.1246 100.255 11.3826 99.9373 11.7192L100.664 12.4058C100.878 12.1799 101.141 12.0004 101.462 11.8692L101.084 10.9433ZM99.9373 11.7192C99.6248 12.05 99.3813 12.4407 99.2037 12.8846L100.132 13.256C100.267 12.9187 100.445 12.6375 100.664 12.4058L99.9373 11.7192ZM99.2018 12.8895C99.0352 13.3191 98.9284 13.7854 98.8776 14.2854L99.8724 14.3865C99.9153 13.9646 100.004 13.5871 100.134 13.2511L99.2018 12.8895ZM99.1251 13.9028L98.5158 14.2544L99.0155 15.1206L99.6249 14.769L99.1251 13.9028ZM99.2656 14.6875C99.2656 13.9541 99.3367 13.2719 99.4765 12.6391L98.5001 12.4234C98.343 13.1344 98.2656 13.8896 98.2656 14.6875H99.2656ZM99.4753 12.6445C99.6208 12.0187 99.84 11.4772 100.128 11.0138L99.2784 10.4862C98.9256 11.0541 98.6682 11.7 98.5013 12.418L99.4753 12.6445ZM100.13 11.011C100.41 10.5522 100.759 10.2067 101.175 9.96239L100.669 9.10011C100.1 9.43388 99.6365 9.90089 99.2766 10.489L100.13 11.011ZM101.177 9.96118C101.587 9.71792 102.089 9.58594 102.703 9.58594V8.58594C101.942 8.58594 101.257 8.75083 100.667 9.10132L101.177 9.96118ZM102.703 9.58594C102.819 9.58594 102.966 9.60066 103.148 9.63553L103.337 8.65353C103.112 8.61028 102.899 8.58594 102.703 8.58594V9.58594ZM103.166 9.63872C103.258 9.65288 103.328 9.66674 103.379 9.67941C103.434 9.69311 103.448 9.70115 103.44 9.69721L103.888 8.80279C103.733 8.72529 103.522 8.68171 103.318 8.65035L103.166 9.63872ZM118.512 4.84375H119.012V4.34375H118.512V4.84375ZM118.512 22V22.5H119.012V22H118.512ZM116.344 22H115.844V22.5H116.344V22ZM116.344 7.55078H116.844V6.83628L116.172 7.08103L116.344 7.55078ZM111.973 9.14453H111.473V9.85904L112.144 9.61428L111.973 9.14453ZM111.973 7.1875L111.796 6.71981L111.473 6.84199V7.1875H111.973ZM118.172 4.84375V4.34375H118.081L117.995 4.37606L118.172 4.84375ZM118.012 4.84375V22H119.012V4.84375H118.012ZM118.512 21.5H116.344V22.5H118.512V21.5ZM116.844 22V7.55078H115.844V22H116.844ZM116.172 7.08103L111.801 8.67478L112.144 9.61428L116.515 8.02053L116.172 7.08103ZM112.473 9.14453V7.1875H111.473V9.14453H112.473ZM112.149 7.65519L118.349 5.31144L117.995 4.37606L111.796 6.71981L112.149 7.65519ZM118.172 5.34375H118.512V4.34375H118.172V5.34375ZM125.496 19.9258L125.126 19.5894L125.126 19.59L125.496 19.9258ZM127.5 19.9258L127.124 20.2558L127.13 20.2619L127.135 20.2678L127.5 19.9258ZM127.5 21.7656L127.135 21.4236L127.13 21.4299L127.5 21.7656ZM125.496 21.7656L125.126 22.1014L125.131 22.1076L125.496 21.7656ZM125.656 20.8516C125.656 20.5966 125.731 20.4111 125.867 20.2615L125.126 19.59C124.808 19.9404 124.656 20.3722 124.656 20.8516H125.656ZM125.866 20.2621C125.983 20.134 126.169 20.0391 126.504 20.0391V19.0391C125.964 19.0391 125.478 19.2019 125.126 19.5894L125.866 20.2621ZM126.504 20.0391C126.84 20.0391 127.018 20.1342 127.124 20.2558L127.876 19.5957C127.529 19.2017 127.043 19.0391 126.504 19.0391V20.0391ZM127.135 20.2678C127.276 20.4181 127.352 20.6015 127.352 20.8516H128.352C128.352 20.3673 128.193 19.9335 127.865 19.5838L127.135 20.2678ZM127.352 20.8516C127.352 21.0907 127.278 21.2712 127.135 21.4237L127.865 22.1076C128.191 21.7601 128.352 21.3311 128.352 20.8516H127.352ZM127.13 21.4299C127.024 21.5464 126.845 21.6406 126.504 21.6406V22.6406C127.038 22.6406 127.523 22.4849 127.87 22.1014L127.13 21.4299ZM126.504 21.6406C126.164 21.6406 125.976 21.5467 125.861 21.4237L125.131 22.1076C125.485 22.4846 125.969 22.6406 126.504 22.6406V21.6406ZM125.867 21.4299C125.729 21.2782 125.656 21.0957 125.656 20.8516H124.656C124.656 21.3262 124.81 21.7531 125.126 22.1014L125.867 21.4299ZM138.773 21.8477L138.956 22.313L138.959 22.3119L138.773 21.8477ZM133.23 21.2031L132.909 21.5862L132.916 21.5922L133.23 21.2031ZM131.52 8.59375L131.037 8.46219L131.036 8.46591L131.52 8.59375ZM132.609 6.32031L132.996 6.6378L132.998 6.63521L132.609 6.32031ZM134.297 5.07812L134.121 4.61018L134.119 4.61088L134.297 5.07812ZM138.352 4.94922L138.21 5.42875L138.218 5.43098L138.352 4.94922ZM139.852 5.71094L139.538 6.10072L139.543 6.1041L139.852 5.71094ZM140.965 7.09375L140.522 7.3269L140.526 7.33402L140.965 7.09375ZM139.605 9.73047L139.111 9.80303L139.112 9.8105L139.605 9.73047ZM138.562 7.22266L138.209 7.57625L138.214 7.58145L138.562 7.22266ZM137.66 6.66016L137.486 7.12895L137.499 7.13341L137.66 6.66016ZM135.152 6.76562L135.365 7.21809L135.372 7.21459L135.152 6.76562ZM134.145 7.66797L133.727 7.39241L133.724 7.39799L134.145 7.66797ZM133.453 17.0898L132.958 17.1624L132.959 17.1688L133.453 17.0898ZM133.863 18.6133L133.402 18.8062L133.403 18.8092L133.863 18.6133ZM135.41 20.2656L135.226 20.7308L135.239 20.7355L135.41 20.2656ZM138.938 19.1992L138.513 18.9342L138.512 18.9363L138.938 19.1992ZM139.547 17.5234L140.038 17.6193L140.038 17.6183L139.547 17.5234ZM141.426 12.1094V14.7109H142.426V12.1094H141.426ZM141.426 14.7109C141.426 16.0827 141.303 17.2172 141.067 18.1241L142.035 18.3759C142.299 17.3609 142.426 16.136 142.426 14.7109H141.426ZM141.067 18.1241C140.829 19.0379 140.495 19.7416 140.082 20.258L140.863 20.8827C141.388 20.2271 141.772 19.3839 142.035 18.3759L141.067 18.1241ZM140.082 20.258C139.665 20.7799 139.168 21.1515 138.588 21.3834L138.959 22.3119C139.707 22.0126 140.343 21.5326 140.863 20.8827L140.082 20.258ZM138.591 21.3823C138.002 21.6136 137.323 21.7344 136.547 21.7344V22.7344C137.427 22.7344 138.233 22.5973 138.956 22.313L138.591 21.3823ZM136.547 21.7344C135.932 21.7344 135.375 21.6576 134.872 21.5088L134.589 22.4677C135.195 22.6471 135.849 22.7344 136.547 22.7344V21.7344ZM134.872 21.5088C134.38 21.3631 133.938 21.1318 133.544 20.814L132.916 21.5922C133.413 21.9932 133.972 22.2853 134.589 22.4677L134.872 21.5088ZM133.552 20.8201C133.171 20.5002 132.834 20.0767 132.547 19.5381L131.664 20.0087C132.002 20.6421 132.415 21.1717 132.909 21.5861L133.552 20.8201ZM132.547 19.5381C132.263 19.0061 132.038 18.3447 131.881 17.5443L130.9 17.7369C131.071 18.6084 131.323 19.3689 131.664 20.0087L132.547 19.5381ZM131.881 17.5443C131.725 16.7481 131.645 15.8052 131.645 14.7109H130.645C130.645 15.8511 130.728 16.8612 130.9 17.7369L131.881 17.5443ZM131.645 14.7109V12.1094H130.645V14.7109H131.645ZM131.645 12.1094C131.645 10.7373 131.768 9.61155 132.003 8.72159L131.036 8.46591C130.772 9.46657 130.645 10.6846 130.645 12.1094H131.645ZM132.002 8.72531C132.247 7.82688 132.584 7.13888 132.996 6.6378L132.223 6.00283C131.697 6.64237 131.308 7.47 131.037 8.46219L132.002 8.72531ZM132.998 6.63521C133.414 6.12126 133.906 5.76212 134.475 5.54537L134.119 4.61088C133.375 4.89413 132.742 5.36311 132.221 6.00541L132.998 6.63521ZM134.473 5.54606C135.073 5.32029 135.754 5.20312 136.523 5.20312V4.20312C135.652 4.20312 134.849 4.33596 134.121 4.61019L134.473 5.54606ZM136.523 5.20312C137.146 5.20312 137.707 5.28008 138.21 5.42869L138.493 4.46975C137.886 4.29023 137.229 4.20312 136.523 4.20312V5.20312ZM138.218 5.43098C138.718 5.5698 139.156 5.79337 139.538 6.10069L140.165 5.32118C139.672 4.92538 139.111 4.64114 138.485 4.46746L138.218 5.43098ZM139.543 6.1041C139.916 6.39755 140.245 6.80015 140.523 7.32687L141.407 6.86063C141.075 6.2311 140.662 5.71182 140.16 5.31778L139.543 6.1041ZM140.526 7.33402C140.808 7.84851 141.032 8.49644 141.189 9.28857L142.17 9.09424C141.999 8.23012 141.746 7.47962 141.403 6.85348L140.526 7.33402ZM141.189 9.28857C141.345 10.0764 141.426 11.015 141.426 12.1094H142.426C142.426 10.9693 142.342 9.96271 142.17 9.09424L141.189 9.28857ZM140.246 15.0625V11.7461H139.246V15.0625H140.246ZM140.246 11.7461C140.246 10.9613 140.198 10.2616 140.099 9.65043L139.112 9.8105C139.2 10.3556 139.246 10.9996 139.246 11.7461H140.246ZM140.1 9.65791C140.01 9.04329 139.872 8.50099 139.681 8.03878L138.757 8.42216C138.909 8.78808 139.029 9.24577 139.111 9.80303L140.1 9.65791ZM139.681 8.03878C139.488 7.57484 139.234 7.17796 138.911 6.86387L138.214 7.58145C138.422 7.78298 138.606 8.05797 138.757 8.42216L139.681 8.03878ZM138.916 6.8691C138.604 6.55744 138.238 6.32887 137.821 6.1869L137.499 7.13341C137.77 7.22582 138.005 7.37225 138.209 7.57621L138.916 6.8691ZM137.835 6.19155C137.434 6.04247 136.995 5.97266 136.523 5.97266V6.97266C136.896 6.97266 137.215 7.02784 137.486 7.12877L137.835 6.19155ZM136.523 5.97266C135.944 5.97266 135.409 6.08273 134.932 6.31666L135.372 7.21459C135.692 7.05789 136.072 6.97266 136.523 6.97266V5.97266ZM134.939 6.31322C134.448 6.54459 134.045 6.91174 133.727 7.39244L134.562 7.9435C134.791 7.59608 135.06 7.36166 135.365 7.21803L134.939 6.31322ZM133.724 7.39799C133.415 7.87916 133.194 8.48482 133.046 9.19444L134.025 9.39931C134.157 8.76518 134.343 8.2849 134.565 7.93795L133.724 7.39799ZM133.046 9.19444C132.896 9.91038 132.824 10.7633 132.824 11.7461H133.824C133.824 10.8071 133.893 10.0271 134.025 9.39931L133.046 9.19444ZM132.824 11.7461V15.0625H133.824V11.7461H132.824ZM132.824 15.0625C132.824 15.8458 132.868 16.5467 132.958 17.1624L133.948 17.0173C133.866 16.4611 133.824 15.8105 133.824 15.0625H132.824ZM132.959 17.1688C133.058 17.7838 133.204 18.3316 133.402 18.8062L134.325 18.4204C134.164 18.0356 134.036 17.5678 133.947 17.0108L132.959 17.1688ZM133.403 18.8092C133.601 19.2738 133.85 19.6746 134.156 19.9993L134.883 19.3132C134.674 19.0911 134.485 18.7965 134.323 18.4174L133.403 18.8092ZM134.156 19.9993C134.462 20.3238 134.819 20.5697 135.226 20.7306L135.594 19.8006C135.329 19.6959 135.093 19.5355 134.883 19.3132L134.156 19.9993ZM135.239 20.7355C135.645 20.8829 136.082 20.9531 136.547 20.9531V19.9531C136.183 19.9531 135.863 19.8984 135.581 19.7957L135.239 20.7355ZM136.547 20.9531C137.142 20.9531 137.688 20.839 138.168 20.5939L137.714 19.703C137.398 19.8641 137.014 19.9531 136.547 19.9531V20.9531ZM138.168 20.5939C138.659 20.344 139.055 19.9593 139.363 19.4621L138.512 18.9363C138.288 19.2985 138.021 19.5466 137.714 19.703L138.168 20.5939ZM139.361 19.4642C139.676 18.9605 139.897 18.3397 140.038 17.6193L139.056 17.4275C138.931 18.0665 138.746 18.5629 138.514 18.9342L139.361 19.4642ZM140.038 17.6183C140.178 16.8906 140.246 16.0369 140.246 15.0625H139.246C139.246 15.9943 139.181 16.7812 139.056 17.4286L140.038 17.6183Z" fill="white"/>
</svg>
