<svg width="50" height="74" viewBox="0 0 50 74" fill="none" xmlns="http://www.w3.org/2000/svg">
<path d="M50 19.4824L36.5385 15.153L32.6923 0H3.84615C1.72192 0 0 1.93828 0 4.32943V69.5595C0 71.9506 1.72192 73.8889 3.84615 73.8889H46.1538C48.2781 73.8889 50 71.9506 50 69.5595V19.4824Z" fill="#59C36A"/>
<path d="M50 19.4824V69.5595C50 71.9506 48.2781 73.8889 46.1538 73.8889H25.3078V0H32.6923L36.5384 15.153L50 19.4824Z" fill="#00A66C"/>
<path d="M36.5385 30.4502H13.4615C12.3986 30.4502 11.5385 31.4184 11.5385 32.6149V58.5915C11.5385 59.788 12.3986 60.7562 13.4615 60.7562H36.5385C37.6014 60.7562 38.4615 59.788 38.4615 58.5915V32.6149C38.4615 31.4184 37.6014 30.4502 36.5385 30.4502ZM15.3846 43.4385H23.0769V47.7679H15.3846V43.4385ZM26.9231 43.4385H34.6154V47.7679H26.9231V43.4385ZM34.6154 39.109H26.9231V34.7796H34.6154V39.109ZM23.0769 34.7796V39.109H15.3846V34.7796H23.0769ZM15.3846 52.0973H23.0769V56.4268H15.3846V52.0973ZM26.9231 56.4268V52.0973H34.6154V56.4268H26.9231Z" fill="#FFF5F5"/>
<path d="M36.5384 30.4502H25.3118V60.7562H36.5384C37.6014 60.7562 38.4615 59.788 38.4615 58.5915V32.6149C38.4615 31.4184 37.6014 30.4502 36.5384 30.4502ZM34.6154 56.4268H26.923V52.0973H34.6154V56.4268ZM34.6154 47.7679H26.923V43.4385H34.6154V47.7679ZM34.6154 39.109H26.923V34.7796H34.6154V39.109Z" fill="#E3E7EA"/>
<path d="M50 19.4824H36.5385C34.4231 19.4824 32.6923 17.5342 32.6923 15.153V0C33.1923 0 33.6923 0.216471 34.0383 0.649558L49.423 17.9673C49.8077 18.3568 50 18.9196 50 19.4824Z" fill="#A0DEB0"/>
</svg>
