<svg width="170" height="170" viewBox="0 0 170 170" fill="none" xmlns="http://www.w3.org/2000/svg">
<path d="M148.75 0H21.25C9.51395 0 0 9.51395 0 21.25V148.75C0 160.486 9.51395 170 21.25 170H148.75C160.486 170 170 160.486 170 148.75V21.25C170 9.51395 160.486 0 148.75 0Z" fill="#0079BF"/>
<path d="M137.7 22.1001H106.25C100.617 22.1001 96.05 26.6668 96.05 32.3001V86.2751C96.05 91.9084 100.617 96.4751 106.25 96.4751H137.7C143.333 96.4751 147.9 91.9084 147.9 86.2751V32.3001C147.9 26.6668 143.333 22.1001 137.7 22.1001Z" fill="white"/>
<path d="M63.7501 22.1001H32.3001C26.6668 22.1001 22.1001 26.6668 22.1001 32.3001V128.775C22.1001 134.408 26.6668 138.975 32.3001 138.975H63.7501C69.3834 138.975 73.9501 134.408 73.9501 128.775V32.3001C73.9501 26.6668 69.3834 22.1001 63.7501 22.1001Z" fill="white"/>
</svg>
